<?xml version="1.0" encoding="UTF-8"?>
<svg xmlns="http://www.w3.org/2000/svg" xmlns:xlink="http://www.w3.org/1999/xlink" width="20px" height="20px" viewBox="0 0 20 20" version="1.1">
<g id="surface1">
<path style=" stroke:none;fill-rule:nonzero;fill:rgb(0%,3.529412%,54.117647%);fill-opacity:1;" d="M 6.25 5 C 5.90625 5 5.625 5.28125 5.625 5.625 C 5.625 5.96875 5.90625 6.25 6.25 6.25 L 13.75 6.25 C 14.09375 6.25 14.375 5.96875 14.375 5.625 C 14.375 5.28125 14.09375 5 13.75 5 Z M 5.625 8.125 C 5.625 7.78125 5.90625 7.5 6.25 7.5 L 13.75 7.5 C 14.09375 7.5 14.375 7.78125 14.375 8.125 C 14.375 8.46875 14.09375 8.75 13.75 8.75 L 6.25 8.75 C 5.90625 8.75 5.625 8.46875 5.625 8.125 Z M 6.25 10 C 5.90625 10 5.625 10.28125 5.625 10.625 C 5.625 10.96875 5.90625 11.25 6.25 11.25 L 13.75 11.25 C 14.09375 11.25 14.375 10.96875 14.375 10.625 C 14.375 10.28125 14.09375 10 13.75 10 Z M 6.25 12.5 C 5.90625 12.5 5.625 12.78125 5.625 13.125 C 5.625 13.46875 5.90625 13.75 6.25 13.75 L 10 13.75 C 10.34375 13.75 10.625 13.46875 10.625 13.125 C 10.625 12.78125 10.34375 12.5 10 12.5 Z M 6.25 12.5 "/>
<path style=" stroke:none;fill-rule:nonzero;fill:rgb(0%,3.529412%,54.117647%);fill-opacity:1;" d="M 2.5 2.5 C 2.5 1.121094 3.621094 0 5 0 L 15 0 C 16.378906 0 17.5 1.121094 17.5 2.5 L 17.5 17.5 C 17.5 18.878906 16.378906 20 15 20 L 5 20 C 3.621094 20 2.5 18.878906 2.5 17.5 Z M 15 1.25 L 5 1.25 C 4.308594 1.25 3.75 1.808594 3.75 2.5 L 3.75 17.5 C 3.75 18.191406 4.308594 18.75 5 18.75 L 15 18.75 C 15.691406 18.75 16.25 18.191406 16.25 17.5 L 16.25 2.5 C 16.25 1.808594 15.691406 1.25 15 1.25 Z M 15 1.25 "/>
</g>
</svg>
