<?xml version="1.0" encoding="UTF-8"?>
<svg xmlns="http://www.w3.org/2000/svg" xmlns:xlink="http://www.w3.org/1999/xlink" width="20px" height="20px" viewBox="0 0 20 20" version="1.1">
<defs>
<filter id="alpha" filterUnits="objectBoundingBox" x="0%" y="0%" width="100%" height="100%">
  <feColorMatrix type="matrix" in="SourceGraphic" values="0 0 0 0 1 0 0 0 0 1 0 0 0 0 1 0 0 0 1 0"/>
</filter>
<mask id="mask0">
  <g filter="url(#alpha)">
<rect x="0" y="0" width="20" height="20" style="fill:rgb(0%,0%,0%);fill-opacity:0.984314;stroke:none;"/>
  </g>
</mask>
<clipPath id="clip1">
  <rect x="0" y="0" width="20" height="20"/>
</clipPath>
<g id="surface5" clip-path="url(#clip1)">
<path style=" stroke:none;fill-rule:evenodd;fill:rgb(63.529412%,28.235294%,25.098039%);fill-opacity:1;" d="M 19.082031 11.464844 C 19.300781 11.664062 19.515625 11.875 19.726562 12.089844 C 19.890625 12.371094 19.902344 12.65625 19.765625 12.949219 C 19.53125 13.191406 19.289062 13.425781 19.042969 13.652344 C 18.785156 13.859375 18.539062 14.078125 18.300781 14.316406 C 17.921875 13.976562 17.570312 13.609375 17.246094 13.222656 C 17.835938 12.652344 18.421875 12.070312 19.003906 11.484375 C 19.027344 11.464844 19.054688 11.460938 19.082031 11.464844 Z M 19.082031 11.464844 "/>
</g>
<mask id="mask1">
  <g filter="url(#alpha)">
<rect x="0" y="0" width="20" height="20" style="fill:rgb(0%,0%,0%);fill-opacity:0.988235;stroke:none;"/>
  </g>
</mask>
<clipPath id="clip2">
  <rect x="0" y="0" width="20" height="20"/>
</clipPath>
<g id="surface8" clip-path="url(#clip2)">
<path style=" stroke:none;fill-rule:evenodd;fill:rgb(83.137255%,76.470588%,69.019608%);fill-opacity:1;" d="M 12.988281 17.480469 C 13 17.480469 13.015625 17.480469 13.027344 17.480469 C 13.367188 17.832031 13.703125 18.183594 14.042969 18.535156 C 13.691406 18.648438 13.335938 18.75 12.96875 18.847656 C 12.929688 18.859375 12.910156 18.886719 12.910156 18.925781 C 12.617188 19.023438 12.316406 19.101562 12.011719 19.160156 C 12.21875 18.933594 12.21875 18.710938 12.011719 18.496094 C 12.335938 18.15625 12.664062 17.820312 12.988281 17.480469 Z M 12.988281 17.480469 "/>
</g>
<mask id="mask2">
  <g filter="url(#alpha)">
<rect x="0" y="0" width="20" height="20" style="fill:rgb(0%,0%,0%);fill-opacity:0.968627;stroke:none;"/>
  </g>
</mask>
<clipPath id="clip3">
  <rect x="0" y="0" width="20" height="20"/>
</clipPath>
<g id="surface11" clip-path="url(#clip3)">
<path style=" stroke:none;fill-rule:evenodd;fill:rgb(36.862745%,36.862745%,36.862745%);fill-opacity:1;" d="M 12.011719 18.496094 C 12.21875 18.710938 12.21875 18.933594 12.011719 19.160156 C 11.75 19.449219 11.476562 19.722656 11.191406 19.980469 C 11.074219 19.980469 10.957031 19.980469 10.839844 19.980469 C 10.671875 19.851562 10.613281 19.683594 10.664062 19.472656 C 10.792969 19.296875 10.945312 19.140625 11.113281 19.003906 C 11.320312 18.925781 11.464844 18.785156 11.542969 18.574219 C 11.683594 18.457031 11.839844 18.429688 12.011719 18.496094 Z M 12.011719 18.496094 "/>
</g>
</defs>
<g id="surface1">
<path style=" stroke:none;fill-rule:evenodd;fill:rgb(83.921569%,52.156863%,23.529412%);fill-opacity:1;" d="M 2.675781 -0.0195312 C 7.273438 -0.0195312 11.867188 -0.0195312 16.464844 -0.0195312 C 17.792969 0.273438 18.632812 1.082031 18.984375 2.402344 C 19.042969 5.410156 19.0625 8.417969 19.042969 11.425781 C 18.871094 11.3125 18.714844 11.175781 18.574219 11.015625 C 18.464844 10.941406 18.347656 10.875 18.222656 10.820312 C 18.089844 10.792969 17.957031 10.804688 17.832031 10.859375 C 17.300781 11.332031 16.808594 11.832031 16.347656 12.363281 C 16.324219 12.359375 16.304688 12.347656 16.289062 12.324219 C 15.558594 13.0625 14.824219 13.789062 14.082031 14.511719 C 12.566406 14.5 11.054688 14.511719 9.550781 14.550781 C 9.1875 14.703125 9.148438 14.917969 9.433594 15.195312 C 10.734375 15.214844 12.039062 15.222656 13.339844 15.214844 C 12.921875 15.671875 12.507812 16.125 12.089844 16.582031 C 11.890625 17.238281 11.707031 17.902344 11.542969 18.574219 C 11.464844 18.785156 11.320312 18.925781 11.113281 19.003906 C 11.117188 18.980469 11.128906 18.960938 11.152344 18.945312 C 8.300781 18.945312 5.449219 18.917969 2.597656 18.867188 C 1.179688 18.542969 0.355469 17.664062 0.117188 16.230469 C 0.0898438 11.699219 0.0898438 7.167969 0.117188 2.636719 C 0.3125 1.398438 0.996094 0.558594 2.167969 0.117188 C 2.34375 0.078125 2.511719 0.03125 2.675781 -0.0195312 Z M 2.675781 -0.0195312 "/>
<path style=" stroke:none;fill-rule:evenodd;fill:rgb(99.607843%,99.607843%,99.607843%);fill-opacity:1;" d="M 7.128906 3.261719 C 7.035156 3.316406 6.96875 3.394531 6.933594 3.496094 C 6.90625 3.496094 6.894531 3.507812 6.894531 3.535156 C 6.800781 3.589844 6.734375 3.667969 6.699219 3.769531 C 6.671875 3.769531 6.660156 3.78125 6.660156 3.808594 C 6.566406 3.863281 6.5 3.941406 6.464844 4.042969 C 6.4375 4.042969 6.425781 4.054688 6.425781 4.082031 C 6.332031 4.136719 6.265625 4.214844 6.230469 4.316406 C 6.203125 4.316406 6.191406 4.328125 6.191406 4.355469 C 6.097656 4.410156 6.03125 4.488281 5.996094 4.589844 C 5.96875 4.589844 5.957031 4.601562 5.957031 4.628906 C 5.863281 4.683594 5.796875 4.761719 5.761719 4.863281 C 5.734375 4.863281 5.722656 4.875 5.722656 4.902344 C 5.628906 4.957031 5.5625 5.035156 5.527344 5.136719 C 5.5 5.136719 5.488281 5.148438 5.488281 5.175781 C 5.394531 5.230469 5.328125 5.308594 5.292969 5.410156 C 5.265625 5.410156 5.253906 5.421875 5.253906 5.449219 C 5.160156 5.503906 5.09375 5.582031 5.058594 5.683594 C 5.03125 5.683594 5.019531 5.695312 5.019531 5.722656 C 4.925781 5.777344 4.859375 5.855469 4.824219 5.957031 C 4.746094 6.007812 4.667969 6.0625 4.589844 6.113281 C 4.496094 6.117188 4.40625 6.101562 4.316406 6.074219 C 3.777344 5.65625 3.230469 5.246094 2.675781 4.84375 C 2.515625 4.707031 2.484375 4.542969 2.578125 4.355469 C 2.714844 4.226562 2.863281 4.207031 3.027344 4.296875 C 3.492188 4.65625 3.96875 5 4.453125 5.332031 C 5.238281 4.453125 6.015625 3.5625 6.777344 2.65625 C 7.125 2.496094 7.300781 2.605469 7.304688 2.988281 C 7.238281 3.074219 7.179688 3.164062 7.128906 3.261719 Z M 7.128906 3.261719 "/>
<path style=" stroke:none;fill-rule:evenodd;fill:rgb(76.862745%,62.352941%,34.901961%);fill-opacity:1;" d="M 7.128906 3.261719 C 7.09375 3.363281 7.027344 3.441406 6.933594 3.496094 C 6.96875 3.394531 7.035156 3.316406 7.128906 3.261719 Z M 7.128906 3.261719 "/>
<path style=" stroke:none;fill-rule:evenodd;fill:rgb(76.862745%,62.352941%,34.901961%);fill-opacity:1;" d="M 6.894531 3.535156 C 6.859375 3.636719 6.792969 3.714844 6.699219 3.769531 C 6.734375 3.667969 6.800781 3.589844 6.894531 3.535156 Z M 6.894531 3.535156 "/>
<path style=" stroke:none;fill-rule:evenodd;fill:rgb(76.862745%,62.352941%,34.901961%);fill-opacity:1;" d="M 6.660156 3.808594 C 6.625 3.910156 6.558594 3.988281 6.464844 4.042969 C 6.5 3.941406 6.566406 3.863281 6.660156 3.808594 Z M 6.660156 3.808594 "/>
<path style=" stroke:none;fill-rule:evenodd;fill:rgb(76.862745%,62.352941%,34.901961%);fill-opacity:1;" d="M 6.425781 4.082031 C 6.390625 4.183594 6.324219 4.261719 6.230469 4.316406 C 6.265625 4.214844 6.332031 4.136719 6.425781 4.082031 Z M 6.425781 4.082031 "/>
<path style=" stroke:none;fill-rule:evenodd;fill:rgb(99.607843%,98.823529%,98.431373%);fill-opacity:1;" d="M 9.589844 4.355469 C 11.75 4.347656 13.914062 4.355469 16.074219 4.375 C 16.390625 4.429688 16.488281 4.605469 16.367188 4.902344 C 16.296875 4.972656 16.210938 5.019531 16.113281 5.039062 C 13.925781 5.066406 11.738281 5.066406 9.550781 5.039062 C 9.261719 4.953125 9.183594 4.777344 9.316406 4.511719 C 9.394531 4.429688 9.488281 4.378906 9.589844 4.355469 Z M 9.589844 4.355469 "/>
<path style=" stroke:none;fill-rule:evenodd;fill:rgb(76.862745%,62.352941%,34.901961%);fill-opacity:1;" d="M 6.191406 4.355469 C 6.15625 4.457031 6.089844 4.535156 5.996094 4.589844 C 6.03125 4.488281 6.097656 4.410156 6.191406 4.355469 Z M 6.191406 4.355469 "/>
<path style=" stroke:none;fill-rule:evenodd;fill:rgb(76.862745%,62.352941%,34.901961%);fill-opacity:1;" d="M 5.957031 4.628906 C 5.921875 4.730469 5.855469 4.808594 5.761719 4.863281 C 5.796875 4.761719 5.863281 4.683594 5.957031 4.628906 Z M 5.957031 4.628906 "/>
<path style=" stroke:none;fill-rule:evenodd;fill:rgb(76.470588%,62.352941%,34.901961%);fill-opacity:1;" d="M 5.722656 4.902344 C 5.6875 5.003906 5.621094 5.082031 5.527344 5.136719 C 5.5625 5.035156 5.628906 4.957031 5.722656 4.902344 Z M 5.722656 4.902344 "/>
<path style=" stroke:none;fill-rule:evenodd;fill:rgb(76.470588%,62.352941%,34.901961%);fill-opacity:1;" d="M 5.488281 5.175781 C 5.453125 5.277344 5.386719 5.355469 5.292969 5.410156 C 5.328125 5.308594 5.394531 5.230469 5.488281 5.175781 Z M 5.488281 5.175781 "/>
<path style=" stroke:none;fill-rule:evenodd;fill:rgb(76.470588%,62.352941%,34.901961%);fill-opacity:1;" d="M 5.253906 5.449219 C 5.21875 5.550781 5.152344 5.628906 5.058594 5.683594 C 5.09375 5.582031 5.160156 5.503906 5.253906 5.449219 Z M 5.253906 5.449219 "/>
<path style=" stroke:none;fill-rule:evenodd;fill:rgb(76.470588%,62.352941%,34.901961%);fill-opacity:1;" d="M 5.019531 5.722656 C 4.984375 5.824219 4.917969 5.902344 4.824219 5.957031 C 4.859375 5.855469 4.925781 5.777344 5.019531 5.722656 Z M 5.019531 5.722656 "/>
<path style=" stroke:none;fill-rule:evenodd;fill:rgb(76.862745%,67.058824%,41.960784%);fill-opacity:1;" d="M 4.316406 6.074219 C 4.40625 6.101562 4.496094 6.117188 4.589844 6.113281 C 4.558594 6.136719 4.519531 6.152344 4.472656 6.152344 C 4.398438 6.160156 4.347656 6.132812 4.316406 6.074219 Z M 4.316406 6.074219 "/>
<path style=" stroke:none;fill-rule:evenodd;fill:rgb(99.607843%,99.607843%,99.607843%);fill-opacity:1;" d="M 7.207031 8.261719 C 7.113281 8.316406 7.046875 8.394531 7.011719 8.496094 C 6.984375 8.496094 6.972656 8.507812 6.972656 8.535156 C 6.878906 8.589844 6.8125 8.667969 6.777344 8.769531 C 6.75 8.769531 6.738281 8.78125 6.738281 8.808594 C 6.644531 8.863281 6.578125 8.941406 6.542969 9.042969 C 6.515625 9.042969 6.503906 9.054688 6.503906 9.082031 C 6.410156 9.136719 6.34375 9.214844 6.308594 9.316406 C 6.28125 9.316406 6.269531 9.328125 6.269531 9.355469 C 6.175781 9.410156 6.109375 9.488281 6.074219 9.589844 C 6.046875 9.589844 6.035156 9.601562 6.035156 9.628906 C 5.941406 9.683594 5.875 9.761719 5.839844 9.863281 C 5.8125 9.863281 5.800781 9.875 5.800781 9.902344 C 5.707031 9.957031 5.640625 10.035156 5.605469 10.136719 C 5.578125 10.136719 5.566406 10.148438 5.566406 10.175781 C 5.472656 10.230469 5.40625 10.308594 5.371094 10.410156 C 5.34375 10.410156 5.332031 10.421875 5.332031 10.449219 C 5.238281 10.503906 5.171875 10.582031 5.136719 10.683594 C 5.109375 10.683594 5.097656 10.695312 5.097656 10.722656 C 5.003906 10.777344 4.9375 10.855469 4.902344 10.957031 C 4.792969 11.085938 4.65625 11.179688 4.492188 11.230469 C 4.417969 11.203125 4.347656 11.171875 4.277344 11.132812 C 3.757812 10.742188 3.234375 10.351562 2.714844 9.960938 C 2.445312 9.734375 2.457031 9.523438 2.753906 9.335938 C 2.804688 9.308594 2.859375 9.308594 2.910156 9.335938 C 3.414062 9.660156 3.894531 10.011719 4.355469 10.390625 C 4.40625 10.417969 4.460938 10.417969 4.511719 10.390625 C 5.257812 9.507812 6.015625 8.628906 6.777344 7.753906 C 7.050781 7.59375 7.230469 7.671875 7.324219 7.988281 C 7.296875 8.085938 7.257812 8.175781 7.207031 8.261719 Z M 7.207031 8.261719 "/>
<path style=" stroke:none;fill-rule:evenodd;fill:rgb(76.470588%,62.745098%,35.294118%);fill-opacity:1;" d="M 7.207031 8.261719 C 7.171875 8.363281 7.105469 8.441406 7.011719 8.496094 C 7.046875 8.394531 7.113281 8.316406 7.207031 8.261719 Z M 7.207031 8.261719 "/>
<path style=" stroke:none;fill-rule:evenodd;fill:rgb(76.470588%,62.745098%,35.294118%);fill-opacity:1;" d="M 6.972656 8.535156 C 6.9375 8.636719 6.871094 8.714844 6.777344 8.769531 C 6.8125 8.667969 6.878906 8.589844 6.972656 8.535156 Z M 6.972656 8.535156 "/>
<path style=" stroke:none;fill-rule:evenodd;fill:rgb(76.470588%,62.745098%,35.686275%);fill-opacity:1;" d="M 6.738281 8.808594 C 6.703125 8.910156 6.636719 8.988281 6.542969 9.042969 C 6.578125 8.941406 6.644531 8.863281 6.738281 8.808594 Z M 6.738281 8.808594 "/>
<path style=" stroke:none;fill-rule:evenodd;fill:rgb(76.470588%,62.745098%,35.686275%);fill-opacity:1;" d="M 6.503906 9.082031 C 6.46875 9.183594 6.402344 9.261719 6.308594 9.316406 C 6.34375 9.214844 6.410156 9.136719 6.503906 9.082031 Z M 6.503906 9.082031 "/>
<path style=" stroke:none;fill-rule:evenodd;fill:rgb(99.607843%,99.607843%,99.607843%);fill-opacity:1;" d="M 9.472656 9.472656 C 11.726562 9.464844 13.976562 9.472656 16.230469 9.492188 C 16.5 9.71875 16.488281 9.925781 16.191406 10.117188 C 13.964844 10.144531 11.738281 10.144531 9.511719 10.117188 C 9.160156 9.921875 9.148438 9.707031 9.472656 9.472656 Z M 9.472656 9.472656 "/>
<path style=" stroke:none;fill-rule:evenodd;fill:rgb(76.470588%,62.745098%,35.686275%);fill-opacity:1;" d="M 6.269531 9.355469 C 6.234375 9.457031 6.167969 9.535156 6.074219 9.589844 C 6.109375 9.488281 6.175781 9.410156 6.269531 9.355469 Z M 6.269531 9.355469 "/>
<path style=" stroke:none;fill-rule:evenodd;fill:rgb(76.470588%,62.745098%,35.686275%);fill-opacity:1;" d="M 6.035156 9.628906 C 6 9.730469 5.933594 9.808594 5.839844 9.863281 C 5.875 9.761719 5.941406 9.683594 6.035156 9.628906 Z M 6.035156 9.628906 "/>
<path style=" stroke:none;fill-rule:evenodd;fill:rgb(76.470588%,62.745098%,35.686275%);fill-opacity:1;" d="M 5.800781 9.902344 C 5.765625 10.003906 5.699219 10.082031 5.605469 10.136719 C 5.640625 10.035156 5.707031 9.957031 5.800781 9.902344 Z M 5.800781 9.902344 "/>
<path style=" stroke:none;fill-rule:evenodd;fill:rgb(76.470588%,62.745098%,35.686275%);fill-opacity:1;" d="M 5.566406 10.175781 C 5.53125 10.277344 5.464844 10.355469 5.371094 10.410156 C 5.40625 10.308594 5.472656 10.230469 5.566406 10.175781 Z M 5.566406 10.175781 "/>
<path style=" stroke:none;fill-rule:evenodd;fill:rgb(76.470588%,62.745098%,35.686275%);fill-opacity:1;" d="M 5.332031 10.449219 C 5.296875 10.550781 5.230469 10.628906 5.136719 10.683594 C 5.171875 10.582031 5.238281 10.503906 5.332031 10.449219 Z M 5.332031 10.449219 "/>
<path style=" stroke:none;fill-rule:evenodd;fill:rgb(83.921569%,35.294118%,28.627451%);fill-opacity:1;" d="M 19.042969 11.425781 C 19.070312 11.425781 19.082031 11.4375 19.082031 11.464844 C 19.054688 11.460938 19.027344 11.464844 19.003906 11.484375 C 18.421875 12.070312 17.835938 12.652344 17.246094 13.222656 C 17.234375 13.222656 17.21875 13.222656 17.207031 13.222656 C 16.90625 12.949219 16.621094 12.664062 16.347656 12.363281 C 16.808594 11.832031 17.300781 11.332031 17.832031 10.859375 C 17.957031 10.804688 18.089844 10.792969 18.222656 10.820312 C 18.347656 10.875 18.464844 10.941406 18.574219 11.015625 C 18.714844 11.175781 18.871094 11.3125 19.042969 11.425781 Z M 19.042969 11.425781 "/>
<path style=" stroke:none;fill-rule:evenodd;fill:rgb(76.470588%,62.745098%,35.686275%);fill-opacity:1;" d="M 5.097656 10.722656 C 5.0625 10.824219 4.996094 10.902344 4.902344 10.957031 C 4.9375 10.855469 5.003906 10.777344 5.097656 10.722656 Z M 5.097656 10.722656 "/>
<use xlink:href="#surface5" mask="url(#mask0)"/>
<path style=" stroke:none;fill-rule:evenodd;fill:rgb(94.509804%,60.784314%,12.941176%);fill-opacity:1;" d="M 16.347656 12.363281 C 16.621094 12.664062 16.90625 12.949219 17.207031 13.222656 C 17.210938 13.25 17.207031 13.277344 17.1875 13.300781 C 15.792969 14.6875 14.40625 16.082031 13.027344 17.480469 C 13.015625 17.480469 13 17.480469 12.988281 17.480469 C 12.703125 17.167969 12.402344 16.867188 12.089844 16.582031 C 12.507812 16.125 12.921875 15.671875 13.339844 15.214844 C 13.5625 15.007812 13.78125 14.796875 14.003906 14.589844 C 14.042969 14.578125 14.070312 14.550781 14.082031 14.511719 C 14.824219 13.789062 15.558594 13.0625 16.289062 12.324219 C 16.304688 12.347656 16.324219 12.359375 16.347656 12.363281 Z M 16.347656 12.363281 "/>
<path style=" stroke:none;fill-rule:evenodd;fill:rgb(99.607843%,99.607843%,99.607843%);fill-opacity:1;" d="M 7.128906 13.808594 C 7.035156 13.863281 6.96875 13.941406 6.933594 14.042969 C 6.90625 14.042969 6.894531 14.054688 6.894531 14.082031 C 6.800781 14.136719 6.734375 14.214844 6.699219 14.316406 C 6.671875 14.316406 6.660156 14.328125 6.660156 14.355469 C 6.566406 14.410156 6.5 14.488281 6.464844 14.589844 C 6.4375 14.589844 6.425781 14.601562 6.425781 14.628906 C 6.332031 14.683594 6.265625 14.761719 6.230469 14.863281 C 6.203125 14.863281 6.191406 14.875 6.191406 14.902344 C 6.097656 14.957031 6.03125 15.035156 5.996094 15.136719 C 5.96875 15.136719 5.957031 15.148438 5.957031 15.175781 C 5.863281 15.230469 5.796875 15.308594 5.761719 15.410156 C 5.734375 15.410156 5.722656 15.421875 5.722656 15.449219 C 5.628906 15.503906 5.5625 15.582031 5.527344 15.683594 C 5.5 15.683594 5.488281 15.695312 5.488281 15.722656 C 5.394531 15.777344 5.328125 15.855469 5.292969 15.957031 C 5.265625 15.957031 5.253906 15.96875 5.253906 15.996094 C 5.160156 16.050781 5.09375 16.128906 5.058594 16.230469 C 5.03125 16.230469 5.019531 16.242188 5.019531 16.269531 C 4.925781 16.324219 4.859375 16.402344 4.824219 16.503906 C 4.644531 16.683594 4.449219 16.703125 4.238281 16.5625 C 3.71875 16.171875 3.195312 15.78125 2.675781 15.390625 C 2.515625 15.253906 2.484375 15.089844 2.578125 14.902344 C 2.714844 14.773438 2.863281 14.753906 3.027344 14.84375 C 3.492188 15.203125 3.96875 15.546875 4.453125 15.878906 C 5.238281 15 6.015625 14.109375 6.777344 13.203125 C 6.960938 13.0625 7.121094 13.082031 7.265625 13.261719 C 7.320312 13.347656 7.332031 13.4375 7.304688 13.535156 C 7.238281 13.621094 7.179688 13.710938 7.128906 13.808594 Z M 7.128906 13.808594 "/>
<path style=" stroke:none;fill-rule:evenodd;fill:rgb(87.843137%,54.901961%,14.509804%);fill-opacity:1;" d="M 17.207031 13.222656 C 17.21875 13.222656 17.234375 13.222656 17.246094 13.222656 C 17.570312 13.609375 17.921875 13.976562 18.300781 14.316406 C 16.945312 15.734375 15.5625 17.132812 14.160156 18.515625 C 14.125 18.535156 14.085938 18.539062 14.042969 18.535156 C 13.703125 18.183594 13.367188 17.832031 13.027344 17.480469 C 14.40625 16.082031 15.792969 14.6875 17.1875 13.300781 C 17.207031 13.277344 17.210938 13.25 17.207031 13.222656 Z M 17.207031 13.222656 "/>
<path style=" stroke:none;fill-rule:evenodd;fill:rgb(83.921569%,52.156863%,23.529412%);fill-opacity:1;" d="M 19.042969 13.652344 C 19.058594 14.589844 19.039062 15.527344 18.984375 16.464844 C 18.664062 17.789062 17.835938 18.589844 16.503906 18.867188 C 15.308594 18.921875 14.109375 18.941406 12.910156 18.925781 C 12.910156 18.886719 12.929688 18.859375 12.96875 18.847656 C 13.335938 18.75 13.691406 18.648438 14.042969 18.535156 C 14.085938 18.539062 14.125 18.535156 14.160156 18.515625 C 15.5625 17.132812 16.945312 15.734375 18.300781 14.316406 C 18.539062 14.078125 18.785156 13.859375 19.042969 13.652344 Z M 19.042969 13.652344 "/>
<path style=" stroke:none;fill-rule:evenodd;fill:rgb(76.470588%,62.745098%,35.686275%);fill-opacity:1;" d="M 7.128906 13.808594 C 7.09375 13.910156 7.027344 13.988281 6.933594 14.042969 C 6.96875 13.941406 7.035156 13.863281 7.128906 13.808594 Z M 7.128906 13.808594 "/>
<path style=" stroke:none;fill-rule:evenodd;fill:rgb(76.470588%,62.745098%,35.686275%);fill-opacity:1;" d="M 6.894531 14.082031 C 6.859375 14.183594 6.792969 14.261719 6.699219 14.316406 C 6.734375 14.214844 6.800781 14.136719 6.894531 14.082031 Z M 6.894531 14.082031 "/>
<path style=" stroke:none;fill-rule:evenodd;fill:rgb(76.470588%,62.745098%,35.686275%);fill-opacity:1;" d="M 6.660156 14.355469 C 6.625 14.457031 6.558594 14.535156 6.464844 14.589844 C 6.5 14.488281 6.566406 14.410156 6.660156 14.355469 Z M 6.660156 14.355469 "/>
<path style=" stroke:none;fill-rule:evenodd;fill:rgb(79.607843%,53.72549%,23.529412%);fill-opacity:1;" d="M 9.550781 14.550781 C 11.054688 14.511719 12.566406 14.5 14.082031 14.511719 C 14.070312 14.550781 14.042969 14.578125 14.003906 14.589844 C 12.527344 14.550781 11.042969 14.539062 9.550781 14.550781 Z M 9.550781 14.550781 "/>
<path style=" stroke:none;fill-rule:evenodd;fill:rgb(99.607843%,99.607843%,99.607843%);fill-opacity:1;" d="M 9.550781 14.550781 C 11.042969 14.539062 12.527344 14.550781 14.003906 14.589844 C 13.78125 14.796875 13.5625 15.007812 13.339844 15.214844 C 12.039062 15.222656 10.734375 15.214844 9.433594 15.195312 C 9.148438 14.917969 9.1875 14.703125 9.550781 14.550781 Z M 9.550781 14.550781 "/>
<path style=" stroke:none;fill-rule:evenodd;fill:rgb(76.470588%,62.745098%,35.686275%);fill-opacity:1;" d="M 6.425781 14.628906 C 6.390625 14.730469 6.324219 14.808594 6.230469 14.863281 C 6.265625 14.761719 6.332031 14.683594 6.425781 14.628906 Z M 6.425781 14.628906 "/>
<path style=" stroke:none;fill-rule:evenodd;fill:rgb(76.470588%,62.745098%,35.686275%);fill-opacity:1;" d="M 6.191406 14.902344 C 6.15625 15.003906 6.089844 15.082031 5.996094 15.136719 C 6.03125 15.035156 6.097656 14.957031 6.191406 14.902344 Z M 6.191406 14.902344 "/>
<path style=" stroke:none;fill-rule:evenodd;fill:rgb(76.470588%,62.745098%,35.686275%);fill-opacity:1;" d="M 5.957031 15.175781 C 5.921875 15.277344 5.855469 15.355469 5.761719 15.410156 C 5.796875 15.308594 5.863281 15.230469 5.957031 15.175781 Z M 5.957031 15.175781 "/>
<path style=" stroke:none;fill-rule:evenodd;fill:rgb(76.470588%,62.745098%,35.686275%);fill-opacity:1;" d="M 5.722656 15.449219 C 5.6875 15.550781 5.621094 15.628906 5.527344 15.683594 C 5.5625 15.582031 5.628906 15.503906 5.722656 15.449219 Z M 5.722656 15.449219 "/>
<path style=" stroke:none;fill-rule:evenodd;fill:rgb(76.470588%,62.745098%,35.686275%);fill-opacity:1;" d="M 5.488281 15.722656 C 5.453125 15.824219 5.386719 15.902344 5.292969 15.957031 C 5.328125 15.855469 5.394531 15.777344 5.488281 15.722656 Z M 5.488281 15.722656 "/>
<path style=" stroke:none;fill-rule:evenodd;fill:rgb(76.470588%,62.745098%,35.686275%);fill-opacity:1;" d="M 5.253906 15.996094 C 5.21875 16.097656 5.152344 16.175781 5.058594 16.230469 C 5.09375 16.128906 5.160156 16.050781 5.253906 15.996094 Z M 5.253906 15.996094 "/>
<path style=" stroke:none;fill-rule:evenodd;fill:rgb(76.470588%,62.745098%,35.686275%);fill-opacity:1;" d="M 5.019531 16.269531 C 4.984375 16.371094 4.917969 16.449219 4.824219 16.503906 C 4.859375 16.402344 4.925781 16.324219 5.019531 16.269531 Z M 5.019531 16.269531 "/>
<path style=" stroke:none;fill-rule:evenodd;fill:rgb(92.54902%,85.882353%,77.254902%);fill-opacity:1;" d="M 12.089844 16.582031 C 12.402344 16.867188 12.703125 17.167969 12.988281 17.480469 C 12.664062 17.820312 12.335938 18.15625 12.011719 18.496094 C 11.839844 18.429688 11.683594 18.457031 11.542969 18.574219 C 11.707031 17.902344 11.890625 17.238281 12.089844 16.582031 Z M 12.089844 16.582031 "/>
<use xlink:href="#surface8" mask="url(#mask1)"/>
<use xlink:href="#surface11" mask="url(#mask2)"/>
</g>
</svg>
