<svg width="20" height="20" viewBox="0 0 20 20" fill="none" xmlns="http://www.w3.org/2000/svg">
<g clip-path="url(#clip0)">
<path fill-rule="evenodd" clip-rule="evenodd" d="M18 10C18 14.4183 14.4183 18 10 18C5.58172 18 2 14.4183 2 10H0C0 15.5228 4.47715 20 10 20C15.5228 20 20 15.5228 20 10C20 4.47715 15.5228 0 10 0C7.49307 0 5.2016 0.922485 3.44652 2.44652L2 1V3.99903L1.99927 4H2V5H6L4.86515 3.86515C6.25462 2.70094 8.04545 2 10 2C14.4183 2 18 5.58172 18 10ZM9 6C9 5.44772 9.44771 5 10 5C10.5523 5 11 5.44772 11 6V9H13C13.5523 9 14 9.44772 14 10C14 10.5523 13.5523 11 13 11H10C9.44771 11 9 10.5523 9 10V6Z" fill="#D7853C"/>
</g>
<defs>
<clipPath id="clip0">
<rect width="20" height="20" fill="white"/>
</clipPath>
</defs>
</svg>
