<?xml version="1.0" encoding="UTF-8"?>
<!DOCTYPE svg PUBLIC "-//W3C//DTD SVG 1.1//EN" "http://www.w3.org/Graphics/SVG/1.1/DTD/svg11.dtd">
<svg xmlns="http://www.w3.org/2000/svg" version="1.1" width="512px" height="512px" style="shape-rendering:geometricPrecision; text-rendering:geometricPrecision; image-rendering:optimizeQuality; fill-rule:evenodd; clip-rule:evenodd" xmlns:xlink="http://www.w3.org/1999/xlink">
<g><path style="opacity:1" fill="#d6853c" d="M 68.5,-0.5 C 186.167,-0.5 303.833,-0.5 421.5,-0.5C 455.518,7.0158 477.018,27.6825 486,61.5C 487.479,138.473 487.979,215.473 487.5,292.5C 483.095,289.604 479.095,286.104 475.5,282C 472.661,280.08 469.661,278.413 466.5,277C 463.072,276.299 459.738,276.632 456.5,278C 442.941,290.058 430.275,302.891 418.5,316.5C 417.883,316.389 417.383,316.056 417,315.5C 398.299,334.368 379.465,353.035 360.5,371.5C 321.663,371.168 282.996,371.501 244.5,372.5C 235.225,376.379 234.225,381.879 241.5,389C 274.832,389.5 308.165,389.667 341.5,389.5C 330.833,401.167 320.167,412.833 309.5,424.5C 304.388,441.27 299.722,458.27 295.5,475.5C 293.465,480.868 289.798,484.535 284.5,486.5C 284.611,485.883 284.944,485.383 285.5,485C 212.479,484.971 139.479,484.305 66.5,483C 30.2211,474.721 9.05446,452.221 3,415.5C 2.33333,299.5 2.33333,183.5 3,67.5C 7.97951,35.8499 25.4795,14.3499 55.5,3C 59.9989,1.96098 64.3323,0.794316 68.5,-0.5 Z"/></g>
<g><path style="opacity:1" fill="#fefefe" d="M 182.5,83.5 C 180.086,84.9108 178.419,86.9108 177.5,89.5C 176.833,89.5 176.5,89.8333 176.5,90.5C 174.086,91.9108 172.419,93.9108 171.5,96.5C 170.833,96.5 170.5,96.8333 170.5,97.5C 168.086,98.9108 166.419,100.911 165.5,103.5C 164.833,103.5 164.5,103.833 164.5,104.5C 162.086,105.911 160.419,107.911 159.5,110.5C 158.833,110.5 158.5,110.833 158.5,111.5C 156.086,112.911 154.419,114.911 153.5,117.5C 152.833,117.5 152.5,117.833 152.5,118.5C 150.086,119.911 148.419,121.911 147.5,124.5C 146.833,124.5 146.5,124.833 146.5,125.5C 144.086,126.911 142.419,128.911 141.5,131.5C 140.833,131.5 140.5,131.833 140.5,132.5C 138.086,133.911 136.419,135.911 135.5,138.5C 134.833,138.5 134.5,138.833 134.5,139.5C 132.086,140.911 130.419,142.911 129.5,145.5C 128.833,145.5 128.5,145.833 128.5,146.5C 126.086,147.911 124.419,149.911 123.5,152.5C 121.5,153.833 119.5,155.167 117.5,156.5C 115.097,156.552 112.764,156.219 110.5,155.5C 96.747,144.777 82.747,134.277 68.5,124C 64.3873,120.491 63.554,116.324 66,111.5C 69.4531,108.231 73.2865,107.731 77.5,110C 89.4184,119.206 101.585,128.039 114,136.5C 134.135,114.024 153.969,91.191 173.5,68C 182.362,63.858 186.862,66.6914 187,76.5C 185.277,78.7167 183.777,81.05 182.5,83.5 Z"/></g>
<g><path style="opacity:1" fill="#c49f59" d="M 182.5,83.5 C 181.581,86.0892 179.914,88.0892 177.5,89.5C 178.419,86.9108 180.086,84.9108 182.5,83.5 Z"/></g>
<g><path style="opacity:1" fill="#c49f59" d="M 176.5,90.5 C 175.581,93.0892 173.914,95.0892 171.5,96.5C 172.419,93.9108 174.086,91.9108 176.5,90.5 Z"/></g>
<g><path style="opacity:1" fill="#c49f59" d="M 170.5,97.5 C 169.581,100.089 167.914,102.089 165.5,103.5C 166.419,100.911 168.086,98.9108 170.5,97.5 Z"/></g>
<g><path style="opacity:1" fill="#c49f59" d="M 164.5,104.5 C 163.581,107.089 161.914,109.089 159.5,110.5C 160.419,107.911 162.086,105.911 164.5,104.5 Z"/></g>
<g><path style="opacity:1" fill="#fefcfb" d="M 245.5,111.5 C 300.834,111.333 356.168,111.5 411.5,112C 419.615,113.397 422.115,117.897 419,125.5C 417.2,127.317 415.034,128.484 412.5,129C 356.5,129.667 300.5,129.667 244.5,129C 237.086,126.786 235.086,122.286 238.5,115.5C 240.525,113.436 242.858,112.102 245.5,111.5 Z"/></g>
<g><path style="opacity:1" fill="#c49f59" d="M 158.5,111.5 C 157.581,114.089 155.914,116.089 153.5,117.5C 154.419,114.911 156.086,112.911 158.5,111.5 Z"/></g>
<g><path style="opacity:1" fill="#c49f59" d="M 152.5,118.5 C 151.581,121.089 149.914,123.089 147.5,124.5C 148.419,121.911 150.086,119.911 152.5,118.5 Z"/></g>
<g><path style="opacity:1" fill="#c39f59" d="M 146.5,125.5 C 145.581,128.089 143.914,130.089 141.5,131.5C 142.419,128.911 144.086,126.911 146.5,125.5 Z"/></g>
<g><path style="opacity:1" fill="#c39f59" d="M 140.5,132.5 C 139.581,135.089 137.914,137.089 135.5,138.5C 136.419,135.911 138.086,133.911 140.5,132.5 Z"/></g>
<g><path style="opacity:1" fill="#c39f59" d="M 134.5,139.5 C 133.581,142.089 131.914,144.089 129.5,145.5C 130.419,142.911 132.086,140.911 134.5,139.5 Z"/></g>
<g><path style="opacity:1" fill="#c39f59" d="M 128.5,146.5 C 127.581,149.089 125.914,151.089 123.5,152.5C 124.419,149.911 126.086,147.911 128.5,146.5 Z"/></g>
<g><path style="opacity:1" fill="#c4ab6b" d="M 110.5,155.5 C 112.764,156.219 115.097,156.552 117.5,156.5C 116.726,157.147 115.726,157.48 114.5,157.5C 112.645,157.66 111.312,156.993 110.5,155.5 Z"/></g>
<g><path style="opacity:1" fill="#fefefe" d="M 184.5,211.5 C 182.086,212.911 180.419,214.911 179.5,217.5C 178.833,217.5 178.5,217.833 178.5,218.5C 176.086,219.911 174.419,221.911 173.5,224.5C 172.833,224.5 172.5,224.833 172.5,225.5C 170.086,226.911 168.419,228.911 167.5,231.5C 166.833,231.5 166.5,231.833 166.5,232.5C 164.086,233.911 162.419,235.911 161.5,238.5C 160.833,238.5 160.5,238.833 160.5,239.5C 158.086,240.911 156.419,242.911 155.5,245.5C 154.833,245.5 154.5,245.833 154.5,246.5C 152.086,247.911 150.419,249.911 149.5,252.5C 148.833,252.5 148.5,252.833 148.5,253.5C 146.086,254.911 144.419,256.911 143.5,259.5C 142.833,259.5 142.5,259.833 142.5,260.5C 140.086,261.911 138.419,263.911 137.5,266.5C 136.833,266.5 136.5,266.833 136.5,267.5C 134.086,268.911 132.419,270.911 131.5,273.5C 130.833,273.5 130.5,273.833 130.5,274.5C 128.086,275.911 126.419,277.911 125.5,280.5C 122.667,283.834 119.167,286.167 115,287.5C 113.107,286.804 111.274,285.97 109.5,285C 96.1667,275 82.8333,265 69.5,255C 62.6056,249.159 62.9389,243.825 70.5,239C 71.8333,238.333 73.1667,238.333 74.5,239C 87.3653,247.266 99.6986,256.266 111.5,266C 112.833,266.667 114.167,266.667 115.5,266C 134.646,243.353 153.98,220.853 173.5,198.5C 180.475,194.392 185.141,196.392 187.5,204.5C 186.763,206.97 185.763,209.304 184.5,211.5 Z"/></g>
<g><path style="opacity:1" fill="#c3a05a" d="M 184.5,211.5 C 183.581,214.089 181.914,216.089 179.5,217.5C 180.419,214.911 182.086,212.911 184.5,211.5 Z"/></g>
<g><path style="opacity:1" fill="#c3a05a" d="M 178.5,218.5 C 177.581,221.089 175.914,223.089 173.5,224.5C 174.419,221.911 176.086,219.911 178.5,218.5 Z"/></g>
<g><path style="opacity:1" fill="#c3a05b" d="M 172.5,225.5 C 171.581,228.089 169.914,230.089 167.5,231.5C 168.419,228.911 170.086,226.911 172.5,225.5 Z"/></g>
<g><path style="opacity:1" fill="#c3a05b" d="M 166.5,232.5 C 165.581,235.089 163.914,237.089 161.5,238.5C 162.419,235.911 164.086,233.911 166.5,232.5 Z"/></g>
<g><path style="opacity:1" fill="#fefefe" d="M 242.5,242.5 C 300.168,242.333 357.834,242.5 415.5,243C 422.434,248.796 422.1,254.129 414.5,259C 357.5,259.667 300.5,259.667 243.5,259C 234.542,254.037 234.208,248.537 242.5,242.5 Z"/></g>
<g><path style="opacity:1" fill="#c3a05b" d="M 160.5,239.5 C 159.581,242.089 157.914,244.089 155.5,245.5C 156.419,242.911 158.086,240.911 160.5,239.5 Z"/></g>
<g><path style="opacity:1" fill="#c3a05b" d="M 154.5,246.5 C 153.581,249.089 151.914,251.089 149.5,252.5C 150.419,249.911 152.086,247.911 154.5,246.5 Z"/></g>
<g><path style="opacity:1" fill="#c3a05b" d="M 148.5,253.5 C 147.581,256.089 145.914,258.089 143.5,259.5C 144.419,256.911 146.086,254.911 148.5,253.5 Z"/></g>
<g><path style="opacity:1" fill="#c3a05b" d="M 142.5,260.5 C 141.581,263.089 139.914,265.089 137.5,266.5C 138.419,263.911 140.086,261.911 142.5,260.5 Z"/></g>
<g><path style="opacity:1" fill="#c3a05b" d="M 136.5,267.5 C 135.581,270.089 133.914,272.089 131.5,273.5C 132.419,270.911 134.086,268.911 136.5,267.5 Z"/></g>
<g><path style="opacity:1" fill="#d65a49" d="M 487.5,292.5 C 488.167,292.5 488.5,292.833 488.5,293.5C 487.761,293.369 487.094,293.536 486.5,294C 471.632,309.035 456.632,323.869 441.5,338.5C 441.167,338.5 440.833,338.5 440.5,338.5C 432.833,331.5 425.5,324.167 418.5,316.5C 430.275,302.891 442.941,290.058 456.5,278C 459.738,276.632 463.072,276.299 466.5,277C 469.661,278.413 472.661,280.08 475.5,282C 479.095,286.104 483.095,289.604 487.5,292.5 Z"/></g>
<g><path style="opacity:1" fill="#c3a05b" d="M 130.5,274.5 C 129.581,277.089 127.914,279.089 125.5,280.5C 126.419,277.911 128.086,275.911 130.5,274.5 Z"/></g>
<g><path style="opacity:0.985" fill="#a24840" d="M 488.5,293.5 C 494.131,298.63 499.631,303.964 505,309.5C 509.184,316.672 509.518,324.005 506,331.5C 499.965,337.703 493.798,343.703 487.5,349.5C 480.889,354.774 474.555,360.44 468.5,366.5C 458.778,357.78 449.778,348.447 441.5,338.5C 456.632,323.869 471.632,309.035 486.5,294C 487.094,293.536 487.761,293.369 488.5,293.5 Z"/></g>
<g><path style="opacity:1" fill="#f19b21" d="M 418.5,316.5 C 425.5,324.167 432.833,331.5 440.5,338.5C 440.631,339.239 440.464,339.906 440,340.5C 404.299,376.035 368.799,411.701 333.5,447.5C 333.167,447.5 332.833,447.5 332.5,447.5C 325.167,439.5 317.5,431.833 309.5,424.5C 320.167,412.833 330.833,401.167 341.5,389.5C 347.167,384.167 352.833,378.833 358.5,373.5C 359.5,373.167 360.167,372.5 360.5,371.5C 379.465,353.035 398.299,334.368 417,315.5C 417.383,316.056 417.883,316.389 418.5,316.5 Z"/></g>
<g><path style="opacity:1" fill="#fefefe" d="M 182.5,353.5 C 180.086,354.911 178.419,356.911 177.5,359.5C 176.833,359.5 176.5,359.833 176.5,360.5C 174.086,361.911 172.419,363.911 171.5,366.5C 170.833,366.5 170.5,366.833 170.5,367.5C 168.086,368.911 166.419,370.911 165.5,373.5C 164.833,373.5 164.5,373.833 164.5,374.5C 162.086,375.911 160.419,377.911 159.5,380.5C 158.833,380.5 158.5,380.833 158.5,381.5C 156.086,382.911 154.419,384.911 153.5,387.5C 152.833,387.5 152.5,387.833 152.5,388.5C 150.086,389.911 148.419,391.911 147.5,394.5C 146.833,394.5 146.5,394.833 146.5,395.5C 144.086,396.911 142.419,398.911 141.5,401.5C 140.833,401.5 140.5,401.833 140.5,402.5C 138.086,403.911 136.419,405.911 135.5,408.5C 134.833,408.5 134.5,408.833 134.5,409.5C 132.086,410.911 130.419,412.911 129.5,415.5C 128.833,415.5 128.5,415.833 128.5,416.5C 126.086,417.911 124.419,419.911 123.5,422.5C 118.902,427.086 113.902,427.586 108.5,424C 95.1667,414 81.8333,404 68.5,394C 64.3873,390.491 63.554,386.324 66,381.5C 69.4531,378.231 73.2865,377.731 77.5,380C 89.4184,389.206 101.585,398.039 114,406.5C 134.135,384.024 153.969,361.191 173.5,338C 178.169,334.376 182.336,334.876 186,339.5C 187.373,341.695 187.706,344.029 187,346.5C 185.277,348.717 183.777,351.05 182.5,353.5 Z"/></g>
<g><path style="opacity:1" fill="#e08c25" d="M 440.5,338.5 C 440.833,338.5 441.167,338.5 441.5,338.5C 449.778,348.447 458.778,357.78 468.5,366.5C 433.752,402.75 398.418,438.583 362.5,474C 361.552,474.483 360.552,474.649 359.5,474.5C 350.833,465.5 342.167,456.5 333.5,447.5C 368.799,411.701 404.299,376.035 440,340.5C 440.464,339.906 440.631,339.239 440.5,338.5 Z"/></g>
<g><path style="opacity:1" fill="#d6853c" d="M 487.5,349.5 C 487.939,373.538 487.439,397.538 486,421.5C 477.783,455.36 456.616,475.86 422.5,483C 391.863,484.436 361.196,484.936 330.5,484.5C 330.47,483.503 330.97,482.836 332,482.5C 341.352,480.042 350.519,477.375 359.5,474.5C 360.552,474.649 361.552,474.483 362.5,474C 398.418,438.583 433.752,402.75 468.5,366.5C 474.555,360.44 480.889,354.774 487.5,349.5 Z"/></g>
<g><path style="opacity:1" fill="#c3a05b" d="M 182.5,353.5 C 181.581,356.089 179.914,358.089 177.5,359.5C 178.419,356.911 180.086,354.911 182.5,353.5 Z"/></g>
<g><path style="opacity:1" fill="#c3a05b" d="M 176.5,360.5 C 175.581,363.089 173.914,365.089 171.5,366.5C 172.419,363.911 174.086,361.911 176.5,360.5 Z"/></g>
<g><path style="opacity:1" fill="#c3a05b" d="M 170.5,367.5 C 169.581,370.089 167.914,372.089 165.5,373.5C 166.419,370.911 168.086,368.911 170.5,367.5 Z"/></g>
<g><path style="opacity:1" fill="#cb893c" d="M 244.5,372.5 C 282.996,371.501 321.663,371.168 360.5,371.5C 360.167,372.5 359.5,373.167 358.5,373.5C 320.67,372.501 282.67,372.168 244.5,372.5 Z"/></g>
<g><path style="opacity:1" fill="#fefefe" d="M 244.5,372.5 C 282.67,372.168 320.67,372.501 358.5,373.5C 352.833,378.833 347.167,384.167 341.5,389.5C 308.165,389.667 274.832,389.5 241.5,389C 234.225,381.879 235.225,376.379 244.5,372.5 Z"/></g>
<g><path style="opacity:1" fill="#c3a05b" d="M 164.5,374.5 C 163.581,377.089 161.914,379.089 159.5,380.5C 160.419,377.911 162.086,375.911 164.5,374.5 Z"/></g>
<g><path style="opacity:1" fill="#c3a05b" d="M 158.5,381.5 C 157.581,384.089 155.914,386.089 153.5,387.5C 154.419,384.911 156.086,382.911 158.5,381.5 Z"/></g>
<g><path style="opacity:1" fill="#c3a05b" d="M 152.5,388.5 C 151.581,391.089 149.914,393.089 147.5,394.5C 148.419,391.911 150.086,389.911 152.5,388.5 Z"/></g>
<g><path style="opacity:1" fill="#c3a05b" d="M 146.5,395.5 C 145.581,398.089 143.914,400.089 141.5,401.5C 142.419,398.911 144.086,396.911 146.5,395.5 Z"/></g>
<g><path style="opacity:1" fill="#c3a05b" d="M 140.5,402.5 C 139.581,405.089 137.914,407.089 135.5,408.5C 136.419,405.911 138.086,403.911 140.5,402.5 Z"/></g>
<g><path style="opacity:1" fill="#c3a05b" d="M 134.5,409.5 C 133.581,412.089 131.914,414.089 129.5,415.5C 130.419,412.911 132.086,410.911 134.5,409.5 Z"/></g>
<g><path style="opacity:1" fill="#c3a05b" d="M 128.5,416.5 C 127.581,419.089 125.914,421.089 123.5,422.5C 124.419,419.911 126.086,417.911 128.5,416.5 Z"/></g>
<g><path style="opacity:1" fill="#ecdbc5" d="M 309.5,424.5 C 317.5,431.833 325.167,439.5 332.5,447.5C 324.167,456.167 315.833,464.833 307.5,473.5C 303.101,471.843 299.101,472.509 295.5,475.5C 299.722,458.27 304.388,441.27 309.5,424.5 Z"/></g>
<g><path style="opacity:0.989" fill="#d4c3b0" d="M 332.5,447.5 C 332.833,447.5 333.167,447.5 333.5,447.5C 342.167,456.5 350.833,465.5 359.5,474.5C 350.519,477.375 341.352,480.042 332,482.5C 330.97,482.836 330.47,483.503 330.5,484.5C 322.972,486.966 315.305,488.966 307.5,490.5C 312.775,484.716 312.775,479.05 307.5,473.5C 315.833,464.833 324.167,456.167 332.5,447.5 Z"/></g>
<g><path style="opacity:0.968" fill="#5e5e5e" d="M 307.5,473.5 C 312.775,479.05 312.775,484.716 307.5,490.5C 300.806,497.86 293.806,504.86 286.5,511.5C 283.5,511.5 280.5,511.5 277.5,511.5C 273.198,508.212 271.698,503.879 273,498.5C 276.336,493.998 280.169,489.998 284.5,486.5C 289.798,484.535 293.465,480.868 295.5,475.5C 299.101,472.509 303.101,471.843 307.5,473.5 Z"/></g>
</svg>
