<svg width="20" height="20" viewBox="0 0 20 20" fill="none" xmlns="http://www.w3.org/2000/svg">
    <path id="Union" fill-rule="evenodd" clip-rule="evenodd" d="M2 10C2 5.63089 5.63089 2 10 2C14.3691 2 18 5.63089 18 10C18 14.3691 14.3691 18 10 18C5.63089 18 2 14.3691 2 10ZM10 0C4.52632 0 0 4.52632 0 10C0 15.4737 4.52632 20 10 20C15.4737 20 20 15.4737 20 10C20 4.52632 15.4737 0 10 0ZM11 5C11 4.44772 10.5523 4 10 4C9.44771 4 9 4.44772 9 5V10C9 10.5523 9.44771 11 10 11H14C14.5523 11 15 10.5523 15 10C15 9.44772 14.5523 9 14 9H11V5Z" fill="#2E9F0C"/>
</svg>
