<?xml version="1.0" encoding="UTF-8"?>
<svg xmlns="http://www.w3.org/2000/svg" xmlns:xlink="http://www.w3.org/1999/xlink" width="20px" height="20px" viewBox="0 0 20 20" version="1.1">
<defs>
<filter id="alpha" filterUnits="objectBoundingBox" x="0%" y="0%" width="100%" height="100%">
  <feColorMatrix type="matrix" in="SourceGraphic" values="0 0 0 0 1 0 0 0 0 1 0 0 0 0 1 0 0 0 1 0"/>
</filter>
<mask id="mask0">
  <g filter="url(#alpha)">
<rect x="0" y="0" width="20" height="20" style="fill:rgb(0%,0%,0%);fill-opacity:0.968627;stroke:none;"/>
  </g>
</mask>
<clipPath id="clip1">
  <rect x="0" y="0" width="20" height="20"/>
</clipPath>
<g id="surface5" clip-path="url(#clip1)">
<path style=" stroke:none;fill-rule:evenodd;fill:rgb(45.490196%,45.882353%,45.490196%);fill-opacity:1;" d="M 14.824219 3.300781 C 15.988281 3.234375 16.527344 3.78125 16.445312 4.941406 C 16.246094 5.566406 15.816406 5.894531 15.15625 5.917969 C 14.328125 5.871094 13.890625 5.433594 13.847656 4.609375 C 13.839844 4.386719 13.871094 4.171875 13.945312 3.964844 C 14.15625 3.628906 14.449219 3.40625 14.824219 3.300781 Z M 14.824219 3.300781 "/>
</g>
</defs>
<g id="surface1">
<path style=" stroke:none;fill-rule:evenodd;fill:rgb(45.490196%,45.882353%,45.490196%);fill-opacity:1;" d="M 12.480469 -0.0195312 C 12.960938 -0.0195312 13.445312 -0.0195312 13.925781 -0.0195312 C 16.835938 0.421875 18.769531 2.039062 19.726562 4.824219 C 19.835938 5.230469 19.917969 5.632812 19.980469 6.035156 C 19.980469 6.53125 19.980469 7.023438 19.980469 7.519531 C 19.523438 10.394531 17.921875 12.3125 15.175781 13.28125 C 13.558594 13.738281 11.976562 13.640625 10.429688 12.988281 C 9.683594 13.695312 8.945312 14.417969 8.222656 15.15625 C 7.835938 15.210938 7.445312 15.230469 7.050781 15.214844 C 7.058594 15.59375 7.050781 15.96875 7.03125 16.347656 C 6.59375 16.785156 6.160156 17.21875 5.722656 17.65625 C 5.304688 17.675781 4.890625 17.683594 4.472656 17.675781 C 4.480469 18.09375 4.472656 18.507812 4.453125 18.925781 C 4.101562 19.273438 3.753906 19.625 3.417969 19.980469 C 2.273438 19.980469 1.125 19.980469 -0.0195312 19.980469 C -0.0195312 18.835938 -0.0195312 17.6875 -0.0195312 16.542969 C 2.308594 14.234375 4.632812 11.914062 6.953125 9.589844 C 6.835938 9.214844 6.71875 8.839844 6.601562 8.457031 C 5.988281 5.488281 6.867188 3.070312 9.238281 1.210938 C 10.21875 0.535156 11.300781 0.125 12.480469 -0.0195312 Z M 13.144531 1.152344 C 15.535156 1.257812 17.261719 2.378906 18.320312 4.511719 C 19.132812 6.589844 18.871094 8.515625 17.539062 10.292969 C 15.917969 12.121094 13.917969 12.726562 11.542969 12.109375 C 11.070312 11.957031 10.621094 11.753906 10.195312 11.503906 C 9.34375 12.316406 8.503906 13.144531 7.675781 13.984375 C 7.0625 14.003906 6.453125 14.011719 5.839844 14.003906 C 5.847656 14.617188 5.839844 15.226562 5.820312 15.839844 C 5.617188 16.042969 5.417969 16.242188 5.214844 16.445312 C 4.550781 16.464844 3.886719 16.472656 3.222656 16.464844 C 3.265625 17.117188 3.269531 17.765625 3.242188 18.417969 C 3.117188 18.542969 2.996094 18.664062 2.871094 18.789062 C 2.296875 18.808594 1.726562 18.816406 1.152344 18.808594 C 1.144531 18.234375 1.152344 17.664062 1.171875 17.089844 C 3.59375 14.667969 6.015625 12.246094 8.4375 9.824219 C 8.464844 9.785156 8.464844 9.746094 8.4375 9.707031 C 7.296875 7.6875 7.324219 5.679688 8.515625 3.691406 C 9.644531 2.09375 11.1875 1.25 13.144531 1.152344 Z M 13.144531 1.152344 "/>
<use xlink:href="#surface5" mask="url(#mask0)"/>
</g>
</svg>
