<?xml version="1.0" encoding="UTF-8"?>
<!DOCTYPE svg PUBLIC "-//W3C//DTD SVG 1.1//EN" "http://www.w3.org/Graphics/SVG/1.1/DTD/svg11.dtd">
<svg xmlns="http://www.w3.org/2000/svg" version="1.1" width="512px" height="512px" style="shape-rendering:geometricPrecision; text-rendering:geometricPrecision; image-rendering:optimizeQuality; fill-rule:evenodd; clip-rule:evenodd" xmlns:xlink="http://www.w3.org/1999/xlink">
<g><path style="opacity:1" fill="#747574" d="M 319.5,-0.5 C 331.833,-0.5 344.167,-0.5 356.5,-0.5C 430.99,10.8378 480.49,52.1711 505,123.5C 507.769,133.85 509.935,144.184 511.5,154.5C 511.5,167.167 511.5,179.833 511.5,192.5C 499.78,266.056 458.78,315.223 388.5,340C 347.119,351.677 306.619,349.177 267,332.5C 247.874,350.625 229.041,369.125 210.5,388C 200.566,389.395 190.566,389.895 180.5,389.5C 180.666,399.172 180.5,408.839 180,418.5C 168.833,429.667 157.667,440.833 146.5,452C 135.839,452.5 125.172,452.667 114.5,452.5C 114.667,463.172 114.5,473.839 114,484.5C 104.964,493.368 96.131,502.368 87.5,511.5C 58.1667,511.5 28.8333,511.5 -0.5,511.5C -0.5,482.167 -0.5,452.833 -0.5,423.5C 59.1321,364.368 118.632,305.035 178,245.5C 175.039,235.943 172.039,226.276 169,216.5C 153.336,140.469 175.836,78.6357 236.5,31C 261.636,13.679 289.303,3.17903 319.5,-0.5 Z M 336.5,29.5 C 397.686,32.2239 441.853,60.8906 469,115.5C 489.783,168.677 483.117,218.01 449,263.5C 407.509,310.339 356.342,325.839 295.5,310C 283.437,306.051 271.937,300.884 261,294.5C 239.207,315.292 217.707,336.459 196.5,358C 180.837,358.5 165.17,358.667 149.5,358.5C 149.667,374.17 149.5,389.837 149,405.5C 143.833,410.667 138.667,415.833 133.5,421C 116.503,421.5 99.5033,421.667 82.5,421.5C 83.5577,438.151 83.7244,454.818 83,471.5C 79.8333,474.667 76.6667,477.833 73.5,481C 58.8371,481.5 44.1705,481.667 29.5,481.5C 29.3334,466.83 29.5001,452.163 30,437.5C 92,375.5 154,313.5 216,251.5C 216.667,250.5 216.667,249.5 216,248.5C 186.795,196.758 187.462,145.425 218,94.5C 246.873,53.6434 286.373,31.9767 336.5,29.5 Z"/></g>
<g><path style="opacity:0.969" fill="#747574" d="M 379.5,84.5 C 409.311,82.8103 423.144,96.8103 421,126.5C 415.933,142.545 404.933,150.879 388,151.5C 366.765,150.265 355.598,139.098 354.5,118C 354.254,112.326 355.087,106.826 357,101.5C 362.42,92.8931 369.92,87.2264 379.5,84.5 Z"/></g>
</svg>
