<?xml version="1.0" encoding="UTF-8"?>
<svg xmlns="http://www.w3.org/2000/svg" xmlns:xlink="http://www.w3.org/1999/xlink" width="20px" height="20px" viewBox="0 0 20 20" version="1.1">
<g id="surface1">
<path style=" stroke:none;fill-rule:nonzero;fill:rgb(2.352941%,38.039216%,0%);fill-opacity:1;" d="M 2.5 12.5 L 6.25 12.5 C 6.941406 12.5 7.5 13.058594 7.5 13.75 L 7.5 17.5 C 7.5 18.191406 6.941406 18.75 6.25 18.75 L 2.5 18.75 C 1.808594 18.75 1.25 18.191406 1.25 17.5 L 1.25 13.75 C 1.25 13.058594 1.808594 12.5 2.5 12.5 Z M 13.75 1.25 L 17.5 1.25 C 18.191406 1.25 18.75 1.808594 18.75 2.5 L 18.75 6.25 C 18.75 6.941406 18.191406 7.5 17.5 7.5 L 13.75 7.5 C 13.058594 7.5 12.5 6.941406 12.5 6.25 L 12.5 2.5 C 12.5 1.808594 13.058594 1.25 13.75 1.25 Z M 13.75 12.5 C 13.058594 12.5 12.5 13.058594 12.5 13.75 L 12.5 17.5 C 12.5 18.191406 13.058594 18.75 13.75 18.75 L 17.5 18.75 C 18.191406 18.75 18.75 18.191406 18.75 17.5 L 18.75 13.75 C 18.75 13.058594 18.191406 12.5 17.5 12.5 Z M 13.75 0 C 12.371094 0 11.25 1.121094 11.25 2.5 L 11.25 6.25 C 11.25 7.628906 12.371094 8.75 13.75 8.75 L 17.5 8.75 C 18.878906 8.75 20 7.628906 20 6.25 L 20 2.5 C 20 1.121094 18.878906 0 17.5 0 Z M 2.5 11.25 C 1.121094 11.25 0 12.371094 0 13.75 L 0 17.5 C 0 18.878906 1.121094 20 2.5 20 L 6.25 20 C 7.628906 20 8.75 18.878906 8.75 17.5 L 8.75 13.75 C 8.75 12.371094 7.628906 11.25 6.25 11.25 Z M 11.25 13.75 C 11.25 12.371094 12.371094 11.25 13.75 11.25 L 17.5 11.25 C 18.878906 11.25 20 12.371094 20 13.75 L 20 17.5 C 20 18.878906 18.878906 20 17.5 20 L 13.75 20 C 12.371094 20 11.25 18.878906 11.25 17.5 Z M 0 2.5 C 0 1.121094 1.121094 0 2.5 0 L 6.25 0 C 7.628906 0 8.75 1.121094 8.75 2.5 L 8.75 6.25 C 8.75 7.628906 7.628906 8.75 6.25 8.75 L 2.5 8.75 C 1.121094 8.75 0 7.628906 0 6.25 Z M 6.691406 3.566406 C 6.9375 3.324219 6.9375 2.925781 6.691406 2.683594 C 6.449219 2.4375 6.050781 2.4375 5.808594 2.683594 L 3.75 4.742188 L 2.941406 3.933594 C 2.699219 3.6875 2.300781 3.6875 2.058594 3.933594 C 1.8125 4.175781 1.8125 4.574219 2.058594 4.816406 L 3.308594 6.066406 C 3.425781 6.183594 3.582031 6.25 3.75 6.25 C 3.917969 6.25 4.074219 6.183594 4.191406 6.066406 Z M 6.691406 3.566406 "/>
</g>
</svg>
