<?xml version="1.0" encoding="UTF-8"?>
<!DOCTYPE svg PUBLIC "-//W3C//DTD SVG 1.1//EN" "http://www.w3.org/Graphics/SVG/1.1/DTD/svg11.dtd">
<svg xmlns="http://www.w3.org/2000/svg" version="1.1" width="1610px" height="234px" style="shape-rendering:geometricPrecision; text-rendering:geometricPrecision; image-rendering:optimizeQuality; fill-rule:evenodd; clip-rule:evenodd" xmlns:xlink="http://www.w3.org/1999/xlink">
<g><path style="opacity:0.994" fill="#4092da" d="M 15.5,-0.5 C 83.5,-0.5 151.5,-0.5 219.5,-0.5C 227.442,3.95016 232.608,10.6168 235,19.5C 235.667,83.8333 235.667,148.167 235,212.5C 232.041,222.953 225.541,229.953 215.5,233.5C 149.833,233.5 84.1667,233.5 18.5,233.5C 9.83333,229.5 3.5,223.167 -0.5,214.5C -0.5,214.167 -0.5,213.833 -0.5,213.5C 0.833333,213.167 0.833333,212.833 -0.5,212.5C -0.5,148.167 -0.5,83.8333 -0.5,19.5C 0.833333,19.1667 0.833333,18.8333 -0.5,18.5C -0.5,18.1667 -0.5,17.8333 -0.5,17.5C 3.03651,9.96006 8.36985,3.96006 15.5,-0.5 Z"/></g>
<g><path style="opacity:1" fill="#fdfdfd" d="M 107.5,115.5 C 107.166,118.491 108.166,120.824 110.5,122.5C 110.5,122.833 110.5,123.167 110.5,123.5C 110.166,126.491 111.166,128.824 113.5,130.5C 114.73,132.297 115.396,134.297 115.5,136.5C 115.166,139.491 116.166,141.824 118.5,143.5C 123.58,155.75 128.247,168.083 132.5,180.5C 132.259,182.898 132.926,184.898 134.5,186.5C 137.976,195.738 134.976,201.738 125.5,204.5C 122.309,203.825 119.309,202.658 116.5,201C 102.765,186.679 90.5987,171.179 80,154.5C 65.2246,130.95 52.558,106.283 42,80.5C 40.4046,68.1933 45.2379,59.36 56.5,54C 82.8785,42.6525 110.212,34.3192 138.5,29C 146.833,28.3333 155.167,28.3333 163.5,29C 169.057,30.5044 170.89,34.0044 169,39.5C 167.877,42.2487 166.377,44.7487 164.5,47C 146.801,58.5151 128.801,69.5151 110.5,80C 108,82.5 105.5,85 103,87.5C 101.595,91.0721 101.262,94.7387 102,98.5C 103.94,104.154 105.774,109.821 107.5,115.5 Z"/></g>
<g><path style="opacity:0.896" fill="#fefffe" d="M 738.5,46.5 C 750.512,45.3467 756.012,50.68 755,62.5C 748.751,71.4923 741.084,72.8256 732,66.5C 727.121,57.3222 729.288,50.6555 738.5,46.5 Z"/></g>
<g><path style="opacity:0.945" fill="#fefffe" d="M 348.5,52.5 C 371.5,52.5 394.5,52.5 417.5,52.5C 417.5,94.8333 417.5,137.167 417.5,179.5C 410.167,179.5 402.833,179.5 395.5,179.5C 395.5,143.5 395.5,107.5 395.5,71.5C 385.833,71.5 376.167,71.5 366.5,71.5C 363.047,101.886 357.547,131.886 350,161.5C 342.387,179.327 329.22,185.327 310.5,179.5C 309.336,173.193 309.169,166.859 310,160.5C 319.351,164.382 326.185,162.215 330.5,154C 329.366,152.984 329.699,152.317 331.5,152C 331.746,150.94 331.746,149.773 331.5,148.5C 333.385,147.803 333.718,146.803 332.5,145.5C 333.025,144.808 333.692,144.308 334.5,144C 333.978,143.439 333.645,142.772 333.5,142C 334.357,140.032 335.357,138.032 336.5,136C 335.075,134.286 335.408,132.953 337.5,132C 336.009,129.978 336.342,128.312 338.5,127C 337.009,124.978 337.342,123.312 339.5,122C 337.968,119.67 338.302,117.67 340.5,116C 338.968,113.67 339.302,111.67 341.5,110C 339.968,107.67 340.302,105.67 342.5,104C 340.968,101.67 341.302,99.67 343.5,98C 342.965,94.4674 342.965,91.1341 343.5,88C 345.337,76.5113 347.004,64.678 348.5,52.5 Z"/></g>
<g><path style="opacity:0.928" fill="#fefffe" d="M 447.5,52.5 C 454.833,52.5 462.167,52.5 469.5,52.5C 469.333,71.5029 469.5,90.5029 470,109.5C 484.379,90.5765 498.879,71.7431 513.5,53C 522.186,52.1681 530.853,52.3348 539.5,53.5C 523.12,73.2114 507.12,93.2114 491.5,113.5C 508.833,135.167 526.167,156.833 543.5,178.5C 533.833,179.833 524.167,179.833 514.5,178.5C 499.859,158.692 485.025,139.025 470,119.5C 469.5,139.497 469.333,159.497 469.5,179.5C 462.167,179.5 454.833,179.5 447.5,179.5C 447.5,137.167 447.5,94.8333 447.5,52.5 Z"/></g>
<g><path style="opacity:0.95" fill="#fefffe" d="M 607.5,52.5 C 623.503,52.3334 639.503,52.5001 655.5,53C 693.658,55.4907 712.992,75.824 713.5,114C 712.197,148.963 694.531,170.296 660.5,178C 642.868,179.381 625.201,179.881 607.5,179.5C 607.5,137.167 607.5,94.8333 607.5,52.5 Z M 628.5,72.5 C 640.774,70.9118 653.108,71.4118 665.5,74C 673.958,76.3856 680.291,81.3856 684.5,89C 693.078,108.254 692.245,127.087 682,145.5C 674.491,154.171 664.991,159.005 653.5,160C 645.167,160.667 636.833,160.667 628.5,160C 629.832,130.736 629.832,101.569 628.5,72.5 Z"/></g>
<g><path style="opacity:0.936" fill="#fefffe" d="M 1609.5,53.5 C 1609.5,53.8333 1609.5,54.1667 1609.5,54.5C 1608.24,54.4614 1607.24,54.9614 1606.5,56C 1606.5,57 1606.5,58 1606.5,59C 1605.33,59.4186 1604.33,60.0853 1603.5,61C 1603.5,62 1603.5,63 1603.5,64C 1601.83,65.6667 1600.17,67.3333 1598.5,69C 1598.5,70 1598.5,71 1598.5,72C 1597.33,72.4186 1596.33,73.0853 1595.5,74C 1595.5,75 1595.5,76 1595.5,77C 1593.83,78.6667 1592.17,80.3333 1590.5,82C 1590.5,83 1590.5,84 1590.5,85C 1589.33,85.4186 1588.33,86.0853 1587.5,87C 1587.5,88 1587.5,89 1587.5,90C 1585.83,91.6667 1584.17,93.3333 1582.5,95C 1582.5,96 1582.5,97 1582.5,98C 1581.33,98.4186 1580.33,99.0853 1579.5,100C 1579.5,101 1579.5,102 1579.5,103C 1577.32,103.442 1576.65,104.442 1577.5,106C 1575.34,109.011 1573.34,112.177 1571.5,115.5C 1573.03,118.965 1575.03,122.131 1577.5,125C 1577.17,125.333 1576.83,125.667 1576.5,126C 1578.17,127.667 1579.83,129.333 1581.5,131C 1581.5,132 1581.5,133 1581.5,134C 1583.86,135.012 1585.2,136.345 1585.5,138C 1585.17,138.333 1584.83,138.667 1584.5,139C 1586.17,140.667 1587.83,142.333 1589.5,144C 1589.5,145 1589.5,146 1589.5,147C 1591.17,148.667 1592.83,150.333 1594.5,152C 1594.5,153 1594.5,154 1594.5,155C 1595.33,155.915 1596.33,156.581 1597.5,157C 1596.65,158.558 1597.32,159.558 1599.5,160C 1599.5,161 1599.5,162 1599.5,163C 1600.33,163.915 1601.33,164.581 1602.5,165C 1602.5,166 1602.5,167 1602.5,168C 1603.33,168.915 1604.33,169.581 1605.5,170C 1604.65,171.558 1605.32,172.558 1607.5,173C 1607.17,173.333 1606.83,173.667 1606.5,174C 1607.39,175.104 1608.39,176.27 1609.5,177.5C 1609.5,178.167 1609.5,178.833 1609.5,179.5C 1601.16,179.666 1592.83,179.5 1584.5,179C 1575.21,162.247 1566.04,145.413 1557,128.5C 1547.63,145.405 1538.13,162.239 1528.5,179C 1511.16,179.833 1493.82,179.666 1476.5,178.5C 1468.17,163.832 1459.33,149.499 1450,135.5C 1443.47,129.121 1435.63,126.788 1426.5,128.5C 1426.5,145.5 1426.5,162.5 1426.5,179.5C 1419.17,179.5 1411.83,179.5 1404.5,179.5C 1404.5,137.167 1404.5,94.8333 1404.5,52.5C 1421.17,52.3334 1437.84,52.5001 1454.5,53C 1480.69,57.2024 1491.19,72.369 1486,98.5C 1481.44,110.064 1473.27,117.898 1461.5,122C 1466.67,125.833 1471.17,130.333 1475,135.5C 1483.93,149.708 1493.1,163.708 1502.5,177.5C 1516.32,157.21 1529.65,136.543 1542.5,115.5C 1530.17,94.8333 1517.83,74.1667 1505.5,53.5C 1514.5,52.1667 1523.5,52.1667 1532.5,53.5C 1541,69.8333 1549.5,86.1667 1558,102.5C 1566.83,86.1667 1575.67,69.8333 1584.5,53.5C 1592.89,52.1993 1601.23,52.1993 1609.5,53.5 Z M 1426.5,70.5 C 1433.84,70.3337 1441.17,70.5003 1448.5,71C 1458.99,72.663 1464.33,78.8296 1464.5,89.5C 1463.75,100.415 1458.08,107.249 1447.5,110C 1440.51,110.5 1433.51,110.666 1426.5,110.5C 1426.5,97.1667 1426.5,83.8333 1426.5,70.5 Z"/></g>
<g><path style="opacity:0.933" fill="#fefffe" d="M 1047.5,61.5 C 1048.5,61.5 1049.5,61.5 1050.5,61.5C 1050.5,70.5 1050.5,79.5 1050.5,88.5C 1057.83,88.5 1065.17,88.5 1072.5,88.5C 1072.5,94.1667 1072.5,99.8333 1072.5,105.5C 1065.17,105.5 1057.83,105.5 1050.5,105.5C 1050.04,123.236 1050.54,140.902 1052,158.5C 1055.37,163.85 1060.2,165.683 1066.5,164C 1068.42,163.64 1070.09,162.806 1071.5,161.5C 1072.81,167.388 1072.81,173.221 1071.5,179C 1059.32,183.095 1047.65,182.095 1036.5,176C 1032.87,172.238 1030.7,167.738 1030,162.5C 1029.5,143.503 1029.33,124.503 1029.5,105.5C 1024.5,105.5 1019.5,105.5 1014.5,105.5C 1014.5,99.8333 1014.5,94.1667 1014.5,88.5C 1019.5,88.5 1024.5,88.5 1029.5,88.5C 1029.33,81.4921 1029.5,74.4921 1030,67.5C 1035.95,65.5724 1041.79,63.5724 1047.5,61.5 Z"/></g>
<g><path style="opacity:1" fill="#fcfcfd" d="M 174.5,156.5 C 175.051,159.807 175.384,163.14 175.5,166.5C 172.174,170.288 168.507,170.454 164.5,167C 147.221,146.278 134.221,123.112 125.5,97.5C 125.58,92.916 127.58,89.416 131.5,87C 146.931,80.1898 162.931,75.1898 179.5,72C 183.167,71.3333 186.833,71.3333 190.5,72C 193.875,73.0295 195.042,75.1961 194,78.5C 192.878,80.6238 191.378,82.4571 189.5,84C 180.813,89.3648 172.146,94.6981 163.5,100C 158.268,102.633 156.435,106.799 158,112.5C 163.214,127.312 168.714,141.978 174.5,156.5 Z"/></g>
<g><path style="opacity:0.927" fill="#fefffe" d="M 819.5,86.5 C 824.214,86.3531 828.881,86.6864 833.5,87.5C 833.83,94.5316 833.497,101.532 832.5,108.5C 818.873,102.89 809.04,106.89 803,120.5C 802.08,123.101 801.413,125.768 801,128.5C 800.5,145.497 800.333,162.497 800.5,179.5C 793.5,179.5 786.5,179.5 779.5,179.5C 779.5,149.167 779.5,118.833 779.5,88.5C 786.5,88.5 793.5,88.5 800.5,88.5C 800.334,93.5111 800.501,98.5111 801,103.5C 804.866,95.1265 811.032,89.4598 819.5,86.5 Z"/></g>
<g><path style="opacity:0.93" fill="#fefffe" d="M 875.5,86.5 C 892.477,84.0361 906.144,89.3694 916.5,102.5C 922.382,114.122 924.716,126.455 923.5,139.5C 902.5,139.5 881.5,139.5 860.5,139.5C 861.092,151.532 867.092,159.366 878.5,163C 891.982,166.045 904.315,163.545 915.5,155.5C 916.833,161.5 916.833,167.5 915.5,173.5C 908.53,177.996 900.863,180.496 892.5,181C 853.08,183.577 835.247,165.077 839,125.5C 842.58,104.264 854.747,91.2637 875.5,86.5 Z M 878.5,103.5 C 893.463,102.485 901.13,109.485 901.5,124.5C 887.817,124.833 874.15,124.499 860.5,123.5C 862.751,113.258 868.751,106.591 878.5,103.5 Z"/></g>
<g><path style="opacity:0.948" fill="#fefffe" d="M 975.5,86.5 C 985.484,85.7262 995.151,87.0596 1004.5,90.5C 1005.66,97.1418 1005.83,103.808 1005,110.5C 988.575,99.7499 973.741,101.583 960.5,116C 961.634,117.016 961.301,117.683 959.5,118C 960.634,119.016 960.301,119.683 958.5,120C 959.634,121.016 959.301,121.683 957.5,122C 958.815,123.395 958.481,124.395 956.5,125C 957.925,126.714 957.592,128.047 955.5,129C 956.833,132.667 956.833,136.333 955.5,140C 957.658,141.312 957.991,142.978 956.5,145C 963.185,161.951 976.518,167.617 996.5,162C 999.759,160.789 1002.59,158.956 1005,156.5C 1005.67,162.833 1005.67,169.167 1005,175.5C 987.256,183.923 969.756,183.423 952.5,174C 936.402,160.031 930.902,142.531 936,121.5C 941.779,101.379 954.946,89.7123 975.5,86.5 Z"/></g>
<g><path style="opacity:0.941" fill="#fefffe" d="M 1235.5,86.5 C 1248.8,85.058 1259.13,89.2247 1266.5,99C 1266.5,100 1266.5,101 1266.5,102C 1267.42,102.374 1268.25,102.874 1269,103.5C 1278.27,88.7376 1291.44,83.5709 1308.5,88C 1320.18,92.8207 1326.35,101.654 1327,114.5C 1327.5,136.164 1327.67,157.831 1327.5,179.5C 1320.5,179.5 1313.5,179.5 1306.5,179.5C 1306.59,157.907 1306.59,136.741 1306.5,116C 1304.52,115.395 1304.19,114.395 1305.5,113C 1303.7,112.683 1303.37,112.016 1304.5,111C 1298.75,103.354 1291.09,101.687 1281.5,106C 1278.43,108.684 1276.1,111.35 1274.5,114C 1275.63,115.016 1275.3,115.683 1273.5,116C 1274.63,117.016 1274.3,117.683 1272.5,118C 1273.81,119.395 1273.48,120.395 1271.5,121C 1272.93,122.714 1272.59,124.047 1270.5,125C 1271.49,143.09 1271.83,161.257 1271.5,179.5C 1264.5,179.5 1257.5,179.5 1250.5,179.5C 1250.67,159.831 1250.5,140.164 1250,120.5C 1247.23,105.369 1238.73,100.536 1224.5,106C 1219.38,110.74 1216.21,116.573 1215,123.5C 1214.5,142.164 1214.33,160.83 1214.5,179.5C 1207.5,179.5 1200.5,179.5 1193.5,179.5C 1193.5,149.167 1193.5,118.833 1193.5,88.5C 1200.5,88.5 1207.5,88.5 1214.5,88.5C 1214.33,92.5138 1214.5,96.5138 1215,100.5C 1220.12,93.1992 1226.95,88.5326 1235.5,86.5 Z"/></g>
<g><path style="opacity:0.935" fill="#fefffe" d="M 732.5,88.5 C 739.5,88.5 746.5,88.5 753.5,88.5C 753.5,118.833 753.5,149.167 753.5,179.5C 746.5,179.5 739.5,179.5 732.5,179.5C 732.5,149.167 732.5,118.833 732.5,88.5 Z"/></g>
<g><path style="opacity:0.933" fill="#fefffe" d="M 1087.5,88.5 C 1094.5,88.5 1101.5,88.5 1108.5,88.5C 1108.33,108.169 1108.5,127.836 1109,147.5C 1110.17,158.338 1116.17,164.004 1127,164.5C 1136.44,164.065 1142.77,159.399 1146,150.5C 1147.45,129.887 1147.95,109.22 1147.5,88.5C 1154.5,88.5 1161.5,88.5 1168.5,88.5C 1168.5,118.833 1168.5,149.167 1168.5,179.5C 1161.5,179.5 1154.5,179.5 1147.5,179.5C 1147.67,175.486 1147.5,171.486 1147,167.5C 1140.4,177.051 1131.23,181.718 1119.5,181.5C 1100.55,181.049 1090.05,171.382 1088,152.5C 1087.5,131.169 1087.33,109.836 1087.5,88.5 Z"/></g>
<g><path style="opacity:1" fill="#bbcfe1" d="M 107.5,115.5 C 109.065,117.509 110.065,119.843 110.5,122.5C 108.166,120.824 107.166,118.491 107.5,115.5 Z"/></g>
<g><path style="opacity:1" fill="#bfd2e4" d="M 110.5,123.5 C 112.065,125.509 113.065,127.843 113.5,130.5C 111.166,128.824 110.166,126.491 110.5,123.5 Z"/></g>
<g><path style="opacity:1" fill="#bccfe1" d="M 115.5,136.5 C 117.065,138.509 118.065,140.843 118.5,143.5C 116.166,141.824 115.166,139.491 115.5,136.5 Z"/></g>
<g><path style="opacity:1" fill="#84aed5" d="M 174.5,156.5 C 175.972,158.117 176.639,160.117 176.5,162.5C 176.489,164.045 176.156,165.378 175.5,166.5C 175.384,163.14 175.051,159.807 174.5,156.5 Z"/></g>
<g><path style="opacity:1" fill="#a5c1db" d="M 132.5,180.5 C 134.074,182.102 134.741,184.102 134.5,186.5C 132.926,184.898 132.259,182.898 132.5,180.5 Z"/></g>
</svg>
