<?xml version="1.0" encoding="UTF-8"?>
<svg xmlns="http://www.w3.org/2000/svg" xmlns:xlink="http://www.w3.org/1999/xlink" width="180px" height="26px" viewBox="0 0 178 26" version="1.1">
<defs>
<filter id="alpha" filterUnits="objectBoundingBox" x="0%" y="0%" width="100%" height="100%">
  <feColorMatrix type="matrix" in="SourceGraphic" values="0 0 0 0 1 0 0 0 0 1 0 0 0 0 1 0 0 0 1 0"/>
</filter>
<mask id="mask0">
  <g filter="url(#alpha)">
<rect x="0" y="0" width="178" height="26" style="fill:rgb(0%,0%,0%);fill-opacity:0.992157;stroke:none;"/>
  </g>
</mask>
<clipPath id="clip1">
  <rect x="0" y="0" width="178" height="26"/>
</clipPath>
<g id="surface5" clip-path="url(#clip1)">
<path style=" stroke:none;fill-rule:evenodd;fill:rgb(25.098039%,57.254902%,85.490196%);fill-opacity:1;" d="M 1.714844 -0.0546875 C 9.230469 -0.0546875 16.75 -0.0546875 24.269531 -0.0546875 C 25.144531 0.4375 25.71875 1.179688 25.980469 2.167969 C 26.054688 9.316406 26.054688 16.464844 25.980469 23.609375 C 25.652344 24.773438 24.9375 25.550781 23.824219 25.945312 C 16.566406 25.945312 9.304688 25.945312 2.046875 25.945312 C 1.085938 25.5 0.386719 24.796875 -0.0546875 23.832031 C -0.0546875 23.796875 -0.0546875 23.757812 -0.0546875 23.722656 C 0.09375 23.683594 0.09375 23.648438 -0.0546875 23.609375 C -0.0546875 16.464844 -0.0546875 9.316406 -0.0546875 2.167969 C 0.09375 2.128906 0.09375 2.09375 -0.0546875 2.054688 C -0.0546875 2.019531 -0.0546875 1.980469 -0.0546875 1.945312 C 0.335938 1.105469 0.925781 0.441406 1.714844 -0.0546875 Z M 1.714844 -0.0546875 "/>
</g>
<mask id="mask1">
  <g filter="url(#alpha)">
<rect x="0" y="0" width="178" height="26" style="fill:rgb(0%,0%,0%);fill-opacity:0.894118;stroke:none;"/>
  </g>
</mask>
<clipPath id="clip2">
  <rect x="0" y="0" width="178" height="26"/>
</clipPath>
<g id="surface8" clip-path="url(#clip2)">
<path style=" stroke:none;fill-rule:evenodd;fill:rgb(99.607843%,100%,99.607843%);fill-opacity:1;" d="M 81.648438 5.167969 C 82.976562 5.039062 83.582031 5.632812 83.472656 6.945312 C 82.78125 7.945312 81.933594 8.089844 80.929688 7.390625 C 80.390625 6.367188 80.628906 5.628906 81.648438 5.167969 Z M 81.648438 5.167969 "/>
</g>
<mask id="mask2">
  <g filter="url(#alpha)">
<rect x="0" y="0" width="178" height="26" style="fill:rgb(0%,0%,0%);fill-opacity:0.945098;stroke:none;"/>
  </g>
</mask>
<clipPath id="clip3">
  <rect x="0" y="0" width="178" height="26"/>
</clipPath>
<g id="surface11" clip-path="url(#clip3)">
<path style=" stroke:none;fill-rule:evenodd;fill:rgb(99.607843%,100%,99.607843%);fill-opacity:1;" d="M 38.53125 5.832031 C 41.074219 5.832031 43.617188 5.832031 46.160156 5.832031 C 46.160156 10.535156 46.160156 15.242188 46.160156 19.945312 C 45.347656 19.945312 44.535156 19.945312 43.726562 19.945312 C 43.726562 15.945312 43.726562 11.945312 43.726562 7.945312 C 42.65625 7.945312 41.589844 7.945312 40.519531 7.945312 C 40.136719 11.320312 39.53125 14.652344 38.695312 17.945312 C 37.855469 19.925781 36.398438 20.59375 34.328125 19.945312 C 34.199219 19.242188 34.179688 18.539062 34.273438 17.832031 C 35.308594 18.265625 36.0625 18.023438 36.539062 17.109375 C 36.414062 17 36.453125 16.925781 36.648438 16.890625 C 36.675781 16.769531 36.675781 16.640625 36.648438 16.5 C 36.859375 16.421875 36.894531 16.3125 36.761719 16.167969 C 36.820312 16.089844 36.894531 16.035156 36.980469 16 C 36.925781 15.9375 36.886719 15.863281 36.871094 15.777344 C 36.964844 15.558594 37.078125 15.335938 37.203125 15.109375 C 37.046875 14.921875 37.082031 14.773438 37.3125 14.667969 C 37.148438 14.441406 37.1875 14.257812 37.425781 14.109375 C 37.257812 13.886719 37.296875 13.703125 37.535156 13.554688 C 37.367188 13.296875 37.402344 13.074219 37.644531 12.890625 C 37.476562 12.628906 37.511719 12.40625 37.757812 12.222656 C 37.585938 11.964844 37.625 11.742188 37.867188 11.554688 C 37.695312 11.296875 37.734375 11.074219 37.976562 10.890625 C 37.917969 10.496094 37.917969 10.125 37.976562 9.777344 C 38.179688 8.5 38.363281 7.1875 38.53125 5.832031 Z M 38.53125 5.832031 "/>
</g>
<mask id="mask3">
  <g filter="url(#alpha)">
<rect x="0" y="0" width="178" height="26" style="fill:rgb(0%,0%,0%);fill-opacity:0.929412;stroke:none;"/>
  </g>
</mask>
<clipPath id="clip4">
  <rect x="0" y="0" width="178" height="26"/>
</clipPath>
<g id="surface14" clip-path="url(#clip4)">
<path style=" stroke:none;fill-rule:evenodd;fill:rgb(99.607843%,100%,99.607843%);fill-opacity:1;" d="M 49.476562 5.832031 C 50.285156 5.832031 51.097656 5.832031 51.90625 5.832031 C 51.890625 7.945312 51.90625 10.054688 51.960938 12.167969 C 53.550781 10.0625 55.15625 7.972656 56.773438 5.890625 C 57.730469 5.796875 58.691406 5.816406 59.648438 5.945312 C 57.835938 8.132812 56.066406 10.355469 54.339844 12.609375 C 56.257812 15.019531 58.171875 17.425781 60.089844 19.832031 C 59.019531 19.980469 57.953125 19.980469 56.882812 19.832031 C 55.265625 17.632812 53.625 15.445312 51.960938 13.277344 C 51.90625 15.5 51.890625 17.722656 51.90625 19.945312 C 51.097656 19.945312 50.285156 19.945312 49.476562 19.945312 C 49.476562 15.242188 49.476562 10.535156 49.476562 5.832031 Z M 49.476562 5.832031 "/>
</g>
<mask id="mask4">
  <g filter="url(#alpha)">
<rect x="0" y="0" width="178" height="26" style="fill:rgb(0%,0%,0%);fill-opacity:0.94902;stroke:none;"/>
  </g>
</mask>
<clipPath id="clip5">
  <rect x="0" y="0" width="178" height="26"/>
</clipPath>
<g id="surface17" clip-path="url(#clip5)">
<path style=" stroke:none;fill-rule:evenodd;fill:rgb(99.607843%,100%,99.607843%);fill-opacity:1;" d="M 67.164062 5.832031 C 68.933594 5.816406 70.703125 5.832031 72.472656 5.890625 C 76.691406 6.164062 78.828125 8.425781 78.882812 12.667969 C 78.738281 16.550781 76.785156 18.921875 73.023438 19.777344 C 71.074219 19.929688 69.121094 19.988281 67.164062 19.945312 C 67.164062 15.242188 67.164062 10.535156 67.164062 5.832031 Z M 69.488281 8.054688 C 70.84375 7.878906 72.207031 7.933594 73.578125 8.222656 C 74.511719 8.488281 75.210938 9.042969 75.675781 9.890625 C 76.625 12.027344 76.535156 14.121094 75.402344 16.167969 C 74.570312 17.128906 73.519531 17.667969 72.25 17.777344 C 71.328125 17.851562 70.40625 17.851562 69.488281 17.777344 C 69.632812 14.527344 69.632812 11.285156 69.488281 8.054688 Z M 69.488281 8.054688 "/>
</g>
<mask id="mask5">
  <g filter="url(#alpha)">
<rect x="0" y="0" width="178" height="26" style="fill:rgb(0%,0%,0%);fill-opacity:0.937255;stroke:none;"/>
  </g>
</mask>
<clipPath id="clip6">
  <rect x="0" y="0" width="178" height="26"/>
</clipPath>
<g id="surface20" clip-path="url(#clip6)">
<path style=" stroke:none;fill-rule:evenodd;fill:rgb(99.607843%,100%,99.607843%);fill-opacity:1;" d="M 177.945312 5.945312 C 177.945312 5.980469 177.945312 6.019531 177.945312 6.054688 C 177.804688 6.050781 177.695312 6.105469 177.613281 6.222656 C 177.613281 6.332031 177.613281 6.445312 177.613281 6.554688 C 177.484375 6.601562 177.375 6.675781 177.28125 6.777344 C 177.28125 6.890625 177.28125 7 177.28125 7.109375 C 177.097656 7.296875 176.914062 7.480469 176.730469 7.667969 C 176.730469 7.777344 176.730469 7.890625 176.730469 8 C 176.597656 8.046875 176.488281 8.121094 176.398438 8.222656 C 176.398438 8.332031 176.398438 8.445312 176.398438 8.554688 C 176.210938 8.742188 176.027344 8.925781 175.84375 9.109375 C 175.84375 9.222656 175.84375 9.332031 175.84375 9.445312 C 175.714844 9.492188 175.605469 9.566406 175.511719 9.667969 C 175.511719 9.777344 175.511719 9.890625 175.511719 10 C 175.328125 10.183594 175.144531 10.371094 174.960938 10.554688 C 174.960938 10.667969 174.960938 10.777344 174.960938 10.890625 C 174.832031 10.933594 174.71875 11.007812 174.628906 11.109375 C 174.628906 11.222656 174.628906 11.332031 174.628906 11.445312 C 174.386719 11.492188 174.3125 11.605469 174.40625 11.777344 C 174.167969 12.113281 173.945312 12.464844 173.742188 12.832031 C 173.914062 13.21875 174.132812 13.570312 174.40625 13.890625 C 174.371094 13.925781 174.332031 13.964844 174.296875 14 C 174.480469 14.183594 174.664062 14.371094 174.847656 14.554688 C 174.847656 14.667969 174.847656 14.777344 174.847656 14.890625 C 175.109375 15 175.257812 15.148438 175.292969 15.332031 C 175.253906 15.371094 175.21875 15.40625 175.179688 15.445312 C 175.367188 15.628906 175.550781 15.816406 175.734375 16 C 175.734375 16.109375 175.734375 16.222656 175.734375 16.332031 C 175.917969 16.519531 176.101562 16.703125 176.285156 16.890625 C 176.285156 17 176.285156 17.109375 176.285156 17.222656 C 176.378906 17.324219 176.488281 17.398438 176.617188 17.445312 C 176.523438 17.617188 176.597656 17.730469 176.839844 17.777344 C 176.839844 17.890625 176.839844 18 176.839844 18.109375 C 176.929688 18.210938 177.042969 18.285156 177.171875 18.332031 C 177.171875 18.445312 177.171875 18.554688 177.171875 18.667969 C 177.261719 18.769531 177.375 18.84375 177.503906 18.890625 C 177.410156 19.0625 177.484375 19.171875 177.722656 19.222656 C 177.6875 19.257812 177.648438 19.296875 177.613281 19.332031 C 177.710938 19.457031 177.820312 19.585938 177.945312 19.722656 C 177.945312 19.796875 177.945312 19.871094 177.945312 19.945312 C 177.023438 19.960938 176.101562 19.945312 175.179688 19.890625 C 174.152344 18.027344 173.140625 16.15625 172.140625 14.277344 C 171.105469 16.15625 170.054688 18.027344 168.988281 19.890625 C 167.074219 19.980469 165.15625 19.960938 163.242188 19.832031 C 162.320312 18.203125 161.34375 16.609375 160.3125 15.054688 C 159.589844 14.347656 158.722656 14.085938 157.710938 14.277344 C 157.710938 16.167969 157.710938 18.054688 157.710938 19.945312 C 156.902344 19.945312 156.089844 19.945312 155.28125 19.945312 C 155.28125 15.242188 155.28125 10.535156 155.28125 5.832031 C 157.125 5.816406 158.964844 5.832031 160.808594 5.890625 C 163.703125 6.355469 164.863281 8.039062 164.289062 10.945312 C 163.785156 12.230469 162.882812 13.101562 161.582031 13.554688 C 162.152344 13.980469 162.652344 14.480469 163.074219 15.054688 C 164.0625 16.632812 165.074219 18.191406 166.113281 19.722656 C 167.644531 17.46875 169.117188 15.171875 170.539062 12.832031 C 169.175781 10.535156 167.808594 8.242188 166.445312 5.945312 C 167.441406 5.796875 168.4375 5.796875 169.433594 5.945312 C 170.371094 7.757812 171.3125 9.574219 172.25 11.390625 C 173.226562 9.574219 174.203125 7.757812 175.179688 5.945312 C 176.109375 5.800781 177.03125 5.800781 177.945312 5.945312 Z M 157.710938 7.832031 C 158.523438 7.816406 159.335938 7.832031 160.144531 7.890625 C 161.304688 8.074219 161.894531 8.757812 161.914062 9.945312 C 161.832031 11.15625 161.203125 11.917969 160.035156 12.222656 C 159.261719 12.277344 158.488281 12.296875 157.710938 12.277344 C 157.710938 10.796875 157.710938 9.316406 157.710938 7.832031 Z M 157.710938 7.832031 "/>
</g>
<mask id="mask6">
  <g filter="url(#alpha)">
<rect x="0" y="0" width="178" height="26" style="fill:rgb(0%,0%,0%);fill-opacity:0.933333;stroke:none;"/>
  </g>
</mask>
<clipPath id="clip7">
  <rect x="0" y="0" width="178" height="26"/>
</clipPath>
<g id="surface23" clip-path="url(#clip7)">
<path style=" stroke:none;fill-rule:evenodd;fill:rgb(99.607843%,100%,99.607843%);fill-opacity:1;" d="M 115.8125 6.832031 C 115.921875 6.832031 116.03125 6.832031 116.140625 6.832031 C 116.140625 7.832031 116.140625 8.832031 116.140625 9.832031 C 116.953125 9.832031 117.765625 9.832031 118.574219 9.832031 C 118.574219 10.464844 118.574219 11.09375 118.574219 11.722656 C 117.765625 11.722656 116.953125 11.722656 116.140625 11.722656 C 116.089844 13.691406 116.148438 15.65625 116.308594 17.609375 C 116.679688 18.207031 117.214844 18.410156 117.910156 18.222656 C 118.125 18.183594 118.308594 18.089844 118.464844 17.945312 C 118.609375 18.597656 118.609375 19.246094 118.464844 19.890625 C 117.117188 20.34375 115.828125 20.234375 114.59375 19.554688 C 114.191406 19.136719 113.953125 18.636719 113.875 18.054688 C 113.820312 15.945312 113.800781 13.832031 113.820312 11.722656 C 113.269531 11.722656 112.714844 11.722656 112.164062 11.722656 C 112.164062 11.09375 112.164062 10.464844 112.164062 9.832031 C 112.714844 9.832031 113.269531 9.832031 113.820312 9.832031 C 113.800781 9.054688 113.820312 8.277344 113.875 7.5 C 114.535156 7.285156 115.179688 7.0625 115.8125 6.832031 Z M 115.8125 6.832031 "/>
</g>
<mask id="mask7">
  <g filter="url(#alpha)">
<rect x="0" y="0" width="178" height="26" style="fill:rgb(0%,0%,0%);fill-opacity:0.92549;stroke:none;"/>
  </g>
</mask>
<clipPath id="clip8">
  <rect x="0" y="0" width="178" height="26"/>
</clipPath>
<g id="surface26" clip-path="url(#clip8)">
<path style=" stroke:none;fill-rule:evenodd;fill:rgb(99.607843%,100%,99.607843%);fill-opacity:1;" d="M 90.601562 9.609375 C 91.125 9.59375 91.640625 9.632812 92.152344 9.722656 C 92.1875 10.503906 92.152344 11.28125 92.039062 12.054688 C 90.535156 11.433594 89.445312 11.875 88.777344 13.390625 C 88.675781 13.679688 88.601562 13.972656 88.558594 14.277344 C 88.503906 16.167969 88.484375 18.054688 88.503906 19.945312 C 87.730469 19.945312 86.953125 19.945312 86.179688 19.945312 C 86.179688 16.574219 86.179688 13.203125 86.179688 9.832031 C 86.953125 9.832031 87.730469 9.832031 88.503906 9.832031 C 88.484375 10.390625 88.503906 10.945312 88.558594 11.5 C 88.984375 10.570312 89.667969 9.941406 90.601562 9.609375 Z M 90.601562 9.609375 "/>
</g>
<mask id="mask8">
  <g filter="url(#alpha)">
<rect x="0" y="0" width="178" height="26" style="fill:rgb(0%,0%,0%);fill-opacity:0.929412;stroke:none;"/>
  </g>
</mask>
<clipPath id="clip9">
  <rect x="0" y="0" width="178" height="26"/>
</clipPath>
<g id="surface29" clip-path="url(#clip9)">
<path style=" stroke:none;fill-rule:evenodd;fill:rgb(99.607843%,100%,99.607843%);fill-opacity:1;" d="M 96.792969 9.609375 C 98.671875 9.335938 100.183594 9.929688 101.328125 11.390625 C 101.976562 12.679688 102.234375 14.050781 102.101562 15.5 C 99.78125 15.5 97.457031 15.5 95.136719 15.5 C 95.203125 16.835938 95.863281 17.707031 97.125 18.109375 C 98.617188 18.449219 99.980469 18.171875 101.214844 17.277344 C 101.363281 17.945312 101.363281 18.609375 101.214844 19.277344 C 100.445312 19.777344 99.597656 20.054688 98.675781 20.109375 C 94.316406 20.398438 92.34375 18.34375 92.757812 13.945312 C 93.15625 11.585938 94.5 10.140625 96.792969 9.609375 Z M 97.125 11.5 C 98.78125 11.386719 99.628906 12.164062 99.667969 13.832031 C 98.15625 13.871094 96.644531 13.832031 95.136719 13.722656 C 95.386719 12.585938 96.046875 11.84375 97.125 11.5 Z M 97.125 11.5 "/>
</g>
<mask id="mask9">
  <g filter="url(#alpha)">
<rect x="0" y="0" width="178" height="26" style="fill:rgb(0%,0%,0%);fill-opacity:0.94902;stroke:none;"/>
  </g>
</mask>
<clipPath id="clip10">
  <rect x="0" y="0" width="178" height="26"/>
</clipPath>
<g id="surface32" clip-path="url(#clip10)">
<path style=" stroke:none;fill-rule:evenodd;fill:rgb(99.607843%,100%,99.607843%);fill-opacity:1;" d="M 107.851562 9.609375 C 108.953125 9.523438 110.023438 9.671875 111.054688 10.054688 C 111.183594 10.792969 111.203125 11.535156 111.113281 12.277344 C 109.296875 11.082031 107.65625 11.285156 106.191406 12.890625 C 106.316406 13 106.28125 13.074219 106.082031 13.109375 C 106.207031 13.222656 106.171875 13.296875 105.972656 13.332031 C 106.097656 13.445312 106.058594 13.519531 105.859375 13.554688 C 106.003906 13.710938 105.96875 13.820312 105.75 13.890625 C 105.90625 14.078125 105.871094 14.226562 105.640625 14.332031 C 105.785156 14.742188 105.785156 15.148438 105.640625 15.554688 C 105.878906 15.703125 105.914062 15.886719 105.75 16.109375 C 106.488281 17.996094 107.960938 18.625 110.171875 18 C 110.53125 17.867188 110.84375 17.660156 111.113281 17.390625 C 111.1875 18.09375 111.1875 18.796875 111.113281 19.5 C 109.148438 20.4375 107.214844 20.378906 105.308594 19.332031 C 103.527344 17.78125 102.917969 15.835938 103.484375 13.5 C 104.121094 11.265625 105.578125 9.96875 107.851562 9.609375 Z M 107.851562 9.609375 "/>
</g>
<mask id="mask10">
  <g filter="url(#alpha)">
<rect x="0" y="0" width="178" height="26" style="fill:rgb(0%,0%,0%);fill-opacity:0.941176;stroke:none;"/>
  </g>
</mask>
<clipPath id="clip11">
  <rect x="0" y="0" width="178" height="26"/>
</clipPath>
<g id="surface35" clip-path="url(#clip11)">
<path style=" stroke:none;fill-rule:evenodd;fill:rgb(99.607843%,100%,99.607843%);fill-opacity:1;" d="M 136.59375 9.609375 C 138.066406 9.449219 139.207031 9.914062 140.023438 11 C 140.023438 11.109375 140.023438 11.222656 140.023438 11.332031 C 140.125 11.375 140.214844 11.429688 140.300781 11.5 C 141.324219 9.859375 142.78125 9.285156 144.667969 9.777344 C 145.957031 10.3125 146.640625 11.292969 146.710938 12.722656 C 146.765625 15.128906 146.785156 17.535156 146.765625 19.945312 C 145.992188 19.945312 145.21875 19.945312 144.445312 19.945312 C 144.457031 17.546875 144.457031 15.195312 144.445312 12.890625 C 144.226562 12.820312 144.191406 12.710938 144.335938 12.554688 C 144.136719 12.519531 144.097656 12.445312 144.222656 12.332031 C 143.589844 11.484375 142.742188 11.296875 141.679688 11.777344 C 141.34375 12.074219 141.085938 12.371094 140.90625 12.667969 C 141.03125 12.78125 140.996094 12.855469 140.796875 12.890625 C 140.921875 13 140.886719 13.074219 140.6875 13.109375 C 140.832031 13.265625 140.792969 13.378906 140.574219 13.445312 C 140.734375 13.636719 140.695312 13.78125 140.464844 13.890625 C 140.574219 15.898438 140.613281 17.917969 140.574219 19.945312 C 139.800781 19.945312 139.027344 19.945312 138.253906 19.945312 C 138.273438 17.757812 138.253906 15.574219 138.199219 13.390625 C 137.890625 11.707031 136.953125 11.171875 135.378906 11.777344 C 134.8125 12.304688 134.464844 12.953125 134.328125 13.722656 C 134.273438 15.796875 134.253906 17.871094 134.273438 19.945312 C 133.5 19.945312 132.726562 19.945312 131.953125 19.945312 C 131.953125 16.574219 131.953125 13.203125 131.953125 9.832031 C 132.726562 9.832031 133.5 9.832031 134.273438 9.832031 C 134.253906 10.28125 134.273438 10.722656 134.328125 11.167969 C 134.894531 10.355469 135.648438 9.835938 136.59375 9.609375 Z M 136.59375 9.609375 "/>
</g>
<mask id="mask11">
  <g filter="url(#alpha)">
<rect x="0" y="0" width="178" height="26" style="fill:rgb(0%,0%,0%);fill-opacity:0.933333;stroke:none;"/>
  </g>
</mask>
<clipPath id="clip12">
  <rect x="0" y="0" width="178" height="26"/>
</clipPath>
<g id="surface38" clip-path="url(#clip12)">
<path style=" stroke:none;fill-rule:evenodd;fill:rgb(99.607843%,100%,99.607843%);fill-opacity:1;" d="M 80.984375 9.832031 C 81.757812 9.832031 82.53125 9.832031 83.304688 9.832031 C 83.304688 13.203125 83.304688 16.574219 83.304688 19.945312 C 82.53125 19.945312 81.757812 19.945312 80.984375 19.945312 C 80.984375 16.574219 80.984375 13.203125 80.984375 9.832031 Z M 80.984375 9.832031 "/>
</g>
<mask id="mask12">
  <g filter="url(#alpha)">
<rect x="0" y="0" width="178" height="26" style="fill:rgb(0%,0%,0%);fill-opacity:0.933333;stroke:none;"/>
  </g>
</mask>
<clipPath id="clip13">
  <rect x="0" y="0" width="178" height="26"/>
</clipPath>
<g id="surface41" clip-path="url(#clip13)">
<path style=" stroke:none;fill-rule:evenodd;fill:rgb(99.607843%,100%,99.607843%);fill-opacity:1;" d="M 120.234375 9.832031 C 121.007812 9.832031 121.78125 9.832031 122.554688 9.832031 C 122.535156 12.019531 122.554688 14.203125 122.609375 16.390625 C 122.738281 17.59375 123.402344 18.222656 124.601562 18.277344 C 125.644531 18.230469 126.34375 17.710938 126.699219 16.722656 C 126.859375 14.433594 126.917969 12.136719 126.867188 9.832031 C 127.640625 9.832031 128.414062 9.832031 129.1875 9.832031 C 129.1875 13.203125 129.1875 16.574219 129.1875 19.945312 C 128.414062 19.945312 127.640625 19.945312 126.867188 19.945312 C 126.886719 19.5 126.867188 19.054688 126.8125 18.609375 C 126.082031 19.671875 125.066406 20.191406 123.769531 20.167969 C 121.675781 20.117188 120.515625 19.042969 120.289062 16.945312 C 120.234375 14.574219 120.214844 12.203125 120.234375 9.832031 Z M 120.234375 9.832031 "/>
</g>
</defs>
<g id="surface1">
<use xlink:href="#surface5" mask="url(#mask0)"/>
<path style=" stroke:none;fill-rule:evenodd;fill:rgb(99.215686%,99.215686%,99.215686%);fill-opacity:1;" d="M 11.886719 12.832031 C 11.847656 13.164062 11.957031 13.425781 12.214844 13.609375 C 12.214844 13.648438 12.214844 13.683594 12.214844 13.722656 C 12.179688 14.054688 12.289062 14.3125 12.546875 14.5 C 12.683594 14.699219 12.757812 14.921875 12.769531 15.167969 C 12.734375 15.5 12.84375 15.757812 13.101562 15.945312 C 13.664062 17.304688 14.179688 18.675781 14.648438 20.054688 C 14.621094 20.320312 14.695312 20.542969 14.871094 20.722656 C 15.253906 21.75 14.921875 22.414062 13.875 22.722656 C 13.523438 22.648438 13.191406 22.515625 12.878906 22.332031 C 11.363281 20.742188 10.015625 19.019531 8.84375 17.167969 C 7.210938 14.550781 5.8125 11.808594 4.644531 8.945312 C 4.46875 7.578125 5 6.59375 6.246094 6 C 9.164062 4.738281 12.183594 3.8125 15.3125 3.222656 C 16.234375 3.148438 17.15625 3.148438 18.078125 3.222656 C 18.691406 3.390625 18.894531 3.777344 18.683594 4.390625 C 18.558594 4.695312 18.394531 4.972656 18.1875 5.222656 C 16.230469 6.5 14.238281 7.722656 12.214844 8.890625 C 11.941406 9.167969 11.664062 9.445312 11.386719 9.722656 C 11.230469 10.117188 11.195312 10.527344 11.277344 10.945312 C 11.492188 11.574219 11.695312 12.203125 11.886719 12.832031 Z M 11.886719 12.832031 "/>
<use xlink:href="#surface8" mask="url(#mask1)"/>
<use xlink:href="#surface11" mask="url(#mask2)"/>
<use xlink:href="#surface14" mask="url(#mask3)"/>
<use xlink:href="#surface17" mask="url(#mask4)"/>
<use xlink:href="#surface20" mask="url(#mask5)"/>
<use xlink:href="#surface23" mask="url(#mask6)"/>
<path style=" stroke:none;fill-rule:evenodd;fill:rgb(98.823529%,98.823529%,99.215686%);fill-opacity:1;" d="M 19.292969 17.390625 C 19.351562 17.757812 19.390625 18.125 19.402344 18.5 C 19.035156 18.921875 18.628906 18.9375 18.1875 18.554688 C 16.277344 16.253906 14.839844 13.679688 13.875 10.832031 C 13.882812 10.324219 14.105469 9.933594 14.539062 9.667969 C 16.246094 8.910156 18.011719 8.355469 19.84375 8 C 20.25 7.925781 20.65625 7.925781 21.0625 8 C 21.433594 8.113281 21.5625 8.355469 21.449219 8.722656 C 21.324219 8.957031 21.160156 9.160156 20.949219 9.332031 C 19.992188 9.929688 19.03125 10.523438 18.078125 11.109375 C 17.496094 11.402344 17.296875 11.867188 17.46875 12.5 C 18.042969 14.144531 18.652344 15.773438 19.292969 17.390625 Z M 19.292969 17.390625 "/>
<use xlink:href="#surface26" mask="url(#mask7)"/>
<use xlink:href="#surface29" mask="url(#mask8)"/>
<use xlink:href="#surface32" mask="url(#mask9)"/>
<use xlink:href="#surface35" mask="url(#mask10)"/>
<use xlink:href="#surface38" mask="url(#mask11)"/>
<use xlink:href="#surface41" mask="url(#mask12)"/>
<path style=" stroke:none;fill-rule:evenodd;fill:rgb(73.333333%,81.176471%,88.235294%);fill-opacity:1;" d="M 11.886719 12.832031 C 12.058594 13.054688 12.167969 13.316406 12.214844 13.609375 C 11.957031 13.425781 11.847656 13.164062 11.886719 12.832031 Z M 11.886719 12.832031 "/>
<path style=" stroke:none;fill-rule:evenodd;fill:rgb(74.901961%,82.352941%,89.411765%);fill-opacity:1;" d="M 12.214844 13.722656 C 12.390625 13.945312 12.5 14.203125 12.546875 14.5 C 12.289062 14.3125 12.179688 14.054688 12.214844 13.722656 Z M 12.214844 13.722656 "/>
<path style=" stroke:none;fill-rule:evenodd;fill:rgb(73.72549%,81.176471%,88.235294%);fill-opacity:1;" d="M 12.769531 15.167969 C 12.941406 15.390625 13.054688 15.648438 13.101562 15.945312 C 12.84375 15.757812 12.734375 15.5 12.769531 15.167969 Z M 12.769531 15.167969 "/>
<path style=" stroke:none;fill-rule:evenodd;fill:rgb(51.764706%,68.235294%,83.529412%);fill-opacity:1;" d="M 19.292969 17.390625 C 19.457031 17.570312 19.527344 17.789062 19.511719 18.054688 C 19.511719 18.226562 19.476562 18.375 19.402344 18.5 C 19.390625 18.125 19.351562 17.757812 19.292969 17.390625 Z M 19.292969 17.390625 "/>
<path style=" stroke:none;fill-rule:evenodd;fill:rgb(64.705882%,75.686275%,85.882353%);fill-opacity:1;" d="M 14.648438 20.054688 C 14.824219 20.234375 14.898438 20.457031 14.871094 20.722656 C 14.695312 20.542969 14.621094 20.320312 14.648438 20.054688 Z M 14.648438 20.054688 "/>
</g>
</svg>
