<?xml version="1.0" encoding="UTF-8"?>
<svg xmlns="http://www.w3.org/2000/svg" xmlns:xlink="http://www.w3.org/1999/xlink" width="20px" height="20px" viewBox="0 0 20 20" version="1.1">
<defs>
<filter id="alpha" filterUnits="objectBoundingBox" x="0%" y="0%" width="100%" height="100%">
  <feColorMatrix type="matrix" in="SourceGraphic" values="0 0 0 0 1 0 0 0 0 1 0 0 0 0 1 0 0 0 1 0"/>
</filter>
<mask id="mask0">
  <g filter="url(#alpha)">
<rect x="0" y="0" width="20" height="20" style="fill:rgb(0%,0%,0%);fill-opacity:0.988235;stroke:none;"/>
  </g>
</mask>
<clipPath id="clip1">
  <rect x="0" y="0" width="20" height="20"/>
</clipPath>
<g id="surface5" clip-path="url(#clip1)">
<path style=" stroke:none;fill-rule:evenodd;fill:rgb(99.607843%,65.490196%,16.078431%);fill-opacity:1;" d="M 9.628906 -0.0195312 C 9.863281 -0.0195312 10.097656 -0.0195312 10.332031 -0.0195312 C 11.390625 0.371094 11.757812 1.113281 11.425781 2.207031 C 10.460938 2.101562 9.5 2.101562 8.535156 2.207031 C 8.203125 1.113281 8.570312 0.371094 9.628906 -0.0195312 Z M 9.628906 -0.0195312 "/>
</g>
<mask id="mask1">
  <g filter="url(#alpha)">
<rect x="0" y="0" width="20" height="20" style="fill:rgb(0%,0%,0%);fill-opacity:0.996078;stroke:none;"/>
  </g>
</mask>
<clipPath id="clip2">
  <rect x="0" y="0" width="20" height="20"/>
</clipPath>
<g id="surface8" clip-path="url(#clip2)">
<path style=" stroke:none;fill-rule:evenodd;fill:rgb(99.607843%,80.784314%,19.215686%);fill-opacity:1;" d="M 11.425781 2.207031 C 13.851562 2.738281 15.421875 4.195312 16.132812 6.582031 C 16.363281 7.320312 16.472656 8.074219 16.464844 8.847656 C 16.421875 9.734375 16.382812 10.617188 16.347656 11.503906 C 16.324219 12.480469 16.492188 13.417969 16.855469 14.316406 C 15.046875 14.269531 13.238281 14.265625 11.425781 14.296875 C 11.269531 14.414062 11.269531 14.53125 11.425781 14.648438 C 13.300781 14.667969 15.175781 14.675781 17.050781 14.667969 C 17.257812 14.945312 17.472656 15.21875 17.695312 15.488281 C 17.96875 16.199219 17.90625 16.875 17.5 17.519531 C 17.324219 17.722656 17.109375 17.859375 16.855469 17.929688 C 15.242188 17.949219 13.625 17.957031 12.011719 17.949219 C 10.65625 17.949219 9.304688 17.949219 7.949219 17.949219 C 6.28125 17.96875 4.613281 17.949219 2.949219 17.890625 C 2.554688 17.703125 2.300781 17.398438 2.1875 16.972656 C 2.042969 16.46875 2.070312 15.972656 2.265625 15.488281 C 2.703125 15.003906 3.042969 14.457031 3.28125 13.847656 C 3.511719 13.085938 3.625 12.304688 3.613281 11.503906 C 3.539062 10.371094 3.503906 9.238281 3.515625 8.105469 C 3.660156 6.730469 4.128906 5.480469 4.921875 4.355469 C 5.863281 3.203125 7.066406 2.488281 8.535156 2.207031 C 9.5 2.101562 10.460938 2.101562 11.425781 2.207031 Z M 11.425781 2.207031 "/>
</g>
<mask id="mask2">
  <g filter="url(#alpha)">
<rect x="0" y="0" width="20" height="20" style="fill:rgb(0%,0%,0%);fill-opacity:0.988235;stroke:none;"/>
  </g>
</mask>
<clipPath id="clip3">
  <rect x="0" y="0" width="20" height="20"/>
</clipPath>
<g id="surface11" clip-path="url(#clip3)">
<path style=" stroke:none;fill-rule:evenodd;fill:#febe31;fill-opacity:1;" d="M 7.949219 17.949219 C 9.304688 17.949219 10.65625 17.949219 12.011719 17.949219 C 11.96875 19.035156 11.421875 19.710938 10.371094 19.980469 C 10.109375 19.980469 9.851562 19.980469 9.589844 19.980469 C 8.539062 19.710938 7.992188 19.035156 7.949219 17.949219 Z M 7.949219 17.949219 "/>
</g>
</defs>
<g id="surface1">
<use xlink:href="#surface5" mask="url(#mask0)"/>
<use xlink:href="#surface8" mask="url(#mask1)"/>
<path style=" stroke:none;fill-rule:evenodd;fill:rgb(99.607843%,65.490196%,16.078431%);fill-opacity:1;" d="M 7.597656 3.808594 C 7.832031 3.761719 7.929688 3.855469 7.890625 4.082031 C 6.3125 4.941406 5.414062 6.269531 5.195312 8.066406 C 5.183594 8.613281 5.167969 9.160156 5.15625 9.707031 C 5.007812 9.824219 4.890625 9.800781 4.804688 9.628906 C 4.605469 7.847656 5.0625 6.257812 6.171875 4.863281 C 6.589844 4.425781 7.0625 4.074219 7.597656 3.808594 Z M 7.597656 3.808594 "/>
<path style=" stroke:none;fill-rule:evenodd;fill:rgb(99.607843%,65.490196%,16.078431%);fill-opacity:1;" d="M 12.128906 3.808594 C 12.355469 3.824219 12.5625 3.894531 12.753906 4.023438 C 13.839844 4.714844 14.5625 5.683594 14.921875 6.933594 C 15.019531 7.253906 15.097656 7.582031 15.15625 7.910156 C 15.183594 8.484375 15.183594 9.054688 15.15625 9.628906 C 15.070312 9.800781 14.953125 9.824219 14.804688 9.707031 C 14.972656 8.058594 14.570312 6.574219 13.59375 5.253906 C 13.164062 4.757812 12.65625 4.367188 12.070312 4.082031 C 12.039062 3.976562 12.058594 3.886719 12.128906 3.808594 Z M 12.128906 3.808594 "/>
<path style=" stroke:none;fill-rule:evenodd;fill:rgb(99.607843%,65.490196%,16.078431%);fill-opacity:1;" d="M 16.855469 14.316406 C 16.9375 14.421875 17 14.539062 17.050781 14.667969 C 15.175781 14.675781 13.300781 14.667969 11.425781 14.648438 C 11.269531 14.53125 11.269531 14.414062 11.425781 14.296875 C 13.238281 14.265625 15.046875 14.269531 16.855469 14.316406 Z M 16.855469 14.316406 "/>
<use xlink:href="#surface11" mask="url(#mask2)"/>
</g>
</svg>
