<?xml version="1.0" encoding="UTF-8"?>
<!DOCTYPE svg PUBLIC "-//W3C//DTD SVG 1.1//EN" "http://www.w3.org/Graphics/SVG/1.1/DTD/svg11.dtd">
<svg xmlns="http://www.w3.org/2000/svg" version="1.1" width="512px" height="512px" style="shape-rendering:geometricPrecision; text-rendering:geometricPrecision; image-rendering:optimizeQuality; fill-rule:evenodd; clip-rule:evenodd" xmlns:xlink="http://www.w3.org/1999/xlink">
<g><path style="opacity:0.987" fill="#fea729" d="M 246.5,-0.5 C 252.5,-0.5 258.5,-0.5 264.5,-0.5C 291.648,9.46561 300.982,28.4656 292.5,56.5C 267.835,53.847 243.169,53.847 218.5,56.5C 210.018,28.4656 219.352,9.46561 246.5,-0.5 Z"/></g>
<g><path style="opacity:0.998" fill="#fece31" d="M 292.5,56.5 C 354.616,70.1129 394.783,107.446 413,168.5C 418.88,187.396 421.713,206.729 421.5,226.5C 420.389,249.158 419.389,271.825 418.5,294.5C 417.882,319.465 422.215,343.465 431.5,366.5C 385.237,365.339 338.904,365.172 292.5,366C 288.5,369 288.5,372 292.5,375C 340.499,375.5 388.499,375.667 436.5,375.5C 441.755,382.6 447.255,389.6 453,396.5C 460.042,414.704 458.376,432.038 448,448.5C 443.523,453.653 438.023,457.153 431.5,459C 390.168,459.5 348.835,459.667 307.5,459.5C 272.833,459.5 238.167,459.5 203.5,459.5C 160.786,459.978 118.119,459.478 75.5,458C 65.3821,453.212 58.8821,445.378 56,434.5C 52.3238,421.605 52.9904,408.938 58,396.5C 69.1983,384.111 77.865,370.111 84,354.5C 89.9428,334.96 92.7761,314.96 92.5,294.5C 90.5656,265.524 89.7322,236.524 90,207.5C 93.7422,172.258 105.742,140.258 126,111.5C 150.11,82.022 180.943,63.6887 218.5,56.5C 243.169,53.847 267.835,53.847 292.5,56.5 Z"/></g>
<g><path style="opacity:1" fill="#fea729" d="M 194.5,97.5 C 200.496,96.3327 202.996,98.6661 202,104.5C 161.646,126.483 138.646,160.483 133,206.5C 132.667,220.5 132.333,234.5 132,248.5C 128.195,251.539 125.195,250.872 123,246.5C 117.89,200.85 129.557,160.183 158,124.5C 168.66,113.322 180.827,104.322 194.5,97.5 Z"/></g>
<g><path style="opacity:1" fill="#fea729" d="M 310.5,97.5 C 316.278,97.8816 321.611,99.7149 326.5,103C 354.301,120.713 372.801,145.547 382,177.5C 384.472,185.721 386.472,194.054 388,202.5C 388.667,217.167 388.667,231.833 388,246.5C 385.805,250.872 382.805,251.539 379,248.5C 383.291,206.313 372.957,168.313 348,134.5C 336.996,121.819 323.996,111.819 309,104.5C 308.167,101.829 308.667,99.4957 310.5,97.5 Z"/></g>
<g><path style="opacity:1" fill="#fea729" d="M 431.5,366.5 C 433.56,369.24 435.226,372.24 436.5,375.5C 388.499,375.667 340.499,375.5 292.5,375C 288.5,372 288.5,369 292.5,366C 338.904,365.172 385.237,365.339 431.5,366.5 Z"/></g>
<g><path style="opacity:0.987" fill="#fea728" d="M 203.5,459.5 C 238.167,459.5 272.833,459.5 307.5,459.5C 306.362,487.297 292.362,504.631 265.5,511.5C 258.833,511.5 252.167,511.5 245.5,511.5C 218.638,504.631 204.638,487.297 203.5,459.5 Z"/></g>
</svg>
