<svg width="20" height="20" viewBox="0 0 20 20" fill="none" xmlns="http://www.w3.org/2000/svg">
    <path d="M15.1178 7.21368C15.5521 7.55489 15.6275 8.18355 15.2863 8.61782L9.78632 15.6178C9.60964 15.8427 9.34514 15.9812 9.05968 15.9982C8.77422 16.0153 8.49511 15.9093 8.29289 15.7071L5.29289 12.7071C4.90237 12.3166 4.90237 11.6834 5.29289 11.2929C5.68342 10.9024 6.31658 10.9024 6.70711 11.2929L8.91007 13.4959L13.7137 7.38218C14.0549 6.94791 14.6835 6.87247 15.1178 7.21368Z" fill="#5AA4C7"/>
    <path fill-rule="evenodd" clip-rule="evenodd" d="M18 1V19C18 19.6 17.6 20 17 20H3C2.4 20 2 19.6 2 19V1C2 0.5 2.5 0 3 0H4V2H6V0H14V2H16V0H17C17.5 0 18 0.5 18 1ZM4 5V18H16V5H4Z" fill="#5AA4C7"/>
</svg>
