<?xml version="1.0" encoding="UTF-8"?>
<svg xmlns="http://www.w3.org/2000/svg" xmlns:xlink="http://www.w3.org/1999/xlink" width="20px" height="20px" viewBox="0 0 20 20" version="1.1">
<defs>
<filter id="alpha" filterUnits="objectBoundingBox" x="0%" y="0%" width="100%" height="100%">
  <feColorMatrix type="matrix" in="SourceGraphic" values="0 0 0 0 1 0 0 0 0 1 0 0 0 0 1 0 0 0 1 0"/>
</filter>
<mask id="mask0">
  <g filter="url(#alpha)">
<rect x="0" y="0" width="20" height="20" style="fill:rgb(0%,0%,0%);fill-opacity:0.984314;stroke:none;"/>
  </g>
</mask>
<clipPath id="clip1">
  <rect x="0" y="0" width="20" height="20"/>
</clipPath>
<g id="surface5" clip-path="url(#clip1)">
<path style=" stroke:none;fill-rule:evenodd;fill:rgb(63.529412%,28.235294%,25.098039%);fill-opacity:1;" d="M 19.082031 11.464844 C 19.300781 11.664062 19.515625 11.875 19.726562 12.089844 C 19.890625 12.371094 19.902344 12.65625 19.765625 12.949219 C 19.53125 13.191406 19.289062 13.425781 19.042969 13.652344 C 18.804688 13.890625 18.558594 14.109375 18.300781 14.316406 C 17.921875 13.976562 17.570312 13.609375 17.246094 13.222656 C 17.835938 12.652344 18.421875 12.070312 19.003906 11.484375 C 19.027344 11.464844 19.054688 11.460938 19.082031 11.464844 Z M 19.082031 11.464844 "/>
</g>
<mask id="mask1">
  <g filter="url(#alpha)">
<rect x="0" y="0" width="20" height="20" style="fill:rgb(0%,0%,0%);fill-opacity:0.988235;stroke:none;"/>
  </g>
</mask>
<clipPath id="clip2">
  <rect x="0" y="0" width="20" height="20"/>
</clipPath>
<g id="surface8" clip-path="url(#clip2)">
<path style=" stroke:none;fill-rule:evenodd;fill:rgb(83.137255%,76.470588%,69.019608%);fill-opacity:1;" d="M 12.988281 17.480469 C 13 17.480469 13.015625 17.480469 13.027344 17.480469 C 13.378906 17.84375 13.730469 18.210938 14.082031 18.574219 C 13.730469 18.65625 13.378906 18.75 13.027344 18.847656 C 12.980469 18.855469 12.953125 18.882812 12.949219 18.925781 C 12.640625 19.015625 12.328125 19.09375 12.011719 19.160156 C 12.21875 18.933594 12.21875 18.710938 12.011719 18.496094 C 12.335938 18.15625 12.664062 17.820312 12.988281 17.480469 Z M 12.988281 17.480469 "/>
</g>
<mask id="mask2">
  <g filter="url(#alpha)">
<rect x="0" y="0" width="20" height="20" style="fill:rgb(0%,0%,0%);fill-opacity:0.968627;stroke:none;"/>
  </g>
</mask>
<clipPath id="clip3">
  <rect x="0" y="0" width="20" height="20"/>
</clipPath>
<g id="surface11" clip-path="url(#clip3)">
<path style=" stroke:none;fill-rule:evenodd;fill:rgb(36.862745%,36.862745%,36.862745%);fill-opacity:1;" d="M 12.011719 18.496094 C 12.21875 18.710938 12.21875 18.933594 12.011719 19.160156 C 11.75 19.449219 11.476562 19.722656 11.191406 19.980469 C 11.074219 19.980469 10.957031 19.980469 10.839844 19.980469 C 10.671875 19.851562 10.613281 19.683594 10.664062 19.472656 C 10.808594 19.285156 10.96875 19.113281 11.152344 18.964844 C 11.320312 18.875 11.449219 18.746094 11.542969 18.574219 C 11.683594 18.457031 11.839844 18.429688 12.011719 18.496094 Z M 12.011719 18.496094 "/>
</g>
</defs>
<g id="surface1">
<path style=" stroke:none;fill-rule:evenodd;fill:rgb(18.039216%,62.352941%,5.098039%);fill-opacity:1;" d="M 2.675781 -0.0195312 C 7.273438 -0.0195312 11.867188 -0.0195312 16.464844 -0.0195312 C 17.792969 0.273438 18.632812 1.082031 18.984375 2.402344 C 19.042969 5.410156 19.0625 8.417969 19.042969 11.425781 C 18.882812 11.285156 18.726562 11.132812 18.574219 10.976562 C 18.304688 10.777344 18.015625 10.753906 17.714844 10.898438 C 17.679688 10.925781 17.65625 10.957031 17.636719 10.996094 C 17.171875 11.398438 16.726562 11.828125 16.308594 12.285156 C 16.308594 12.296875 16.308594 12.3125 16.308594 12.324219 C 16.28125 12.320312 16.253906 12.324219 16.230469 12.34375 C 15.492188 13.085938 14.75 13.824219 14.003906 14.550781 C 12.449219 14.53125 10.902344 14.550781 9.355469 14.609375 C 9.179688 14.851562 9.21875 15.058594 9.472656 15.234375 C 10.75 15.253906 12.023438 15.261719 13.300781 15.253906 C 12.910156 15.664062 12.515625 16.066406 12.109375 16.464844 C 12.089844 16.5 12.085938 16.539062 12.089844 16.582031 C 11.890625 17.238281 11.707031 17.902344 11.542969 18.574219 C 11.449219 18.746094 11.320312 18.875 11.152344 18.964844 C 8.304688 18.945312 5.453125 18.910156 2.597656 18.867188 C 1.179688 18.542969 0.355469 17.664062 0.117188 16.230469 C 0.0898438 11.699219 0.0898438 7.167969 0.117188 2.636719 C 0.3125 1.398438 0.996094 0.558594 2.167969 0.117188 C 2.34375 0.078125 2.511719 0.03125 2.675781 -0.0195312 Z M 2.675781 -0.0195312 "/>
<path style=" stroke:none;fill-rule:evenodd;fill:rgb(96.862745%,98.431373%,96.470588%);fill-opacity:1;" d="M 6.816406 2.558594 C 7.230469 2.511719 7.382812 2.679688 7.265625 3.066406 C 6.417969 4.082031 5.566406 5.089844 4.707031 6.09375 C 4.542969 6.179688 4.386719 6.164062 4.238281 6.054688 C 3.660156 5.632812 3.09375 5.195312 2.539062 4.746094 C 2.425781 4.375 2.5625 4.203125 2.949219 4.21875 C 3.402344 4.527344 3.84375 4.855469 4.277344 5.195312 C 4.339844 5.246094 4.402344 5.273438 4.472656 5.273438 C 5.246094 4.363281 6.027344 3.457031 6.816406 2.558594 Z M 6.816406 2.558594 "/>
<path style=" stroke:none;fill-rule:evenodd;fill:rgb(99.607843%,99.607843%,99.215686%);fill-opacity:1;" d="M 9.433594 4.355469 C 11.648438 4.347656 13.859375 4.355469 16.074219 4.375 C 16.398438 4.394531 16.515625 4.554688 16.425781 4.863281 C 16.355469 4.917969 16.292969 4.976562 16.230469 5.039062 C 13.964844 5.066406 11.699219 5.066406 9.433594 5.039062 C 9.292969 4.972656 9.226562 4.863281 9.238281 4.707031 C 9.234375 4.546875 9.296875 4.429688 9.433594 4.355469 Z M 9.433594 4.355469 "/>
<path style=" stroke:none;fill-rule:evenodd;fill:rgb(97.254902%,98.823529%,96.862745%);fill-opacity:1;" d="M 6.855469 7.636719 C 7.289062 7.621094 7.425781 7.816406 7.265625 8.222656 C 7.195312 8.296875 7.117188 8.363281 7.03125 8.417969 C 6.996094 8.542969 6.917969 8.636719 6.796875 8.691406 C 6.761719 8.816406 6.683594 8.910156 6.5625 8.964844 C 6.527344 9.089844 6.449219 9.183594 6.328125 9.238281 C 6.292969 9.363281 6.214844 9.457031 6.09375 9.511719 C 6.058594 9.636719 5.980469 9.730469 5.859375 9.785156 C 5.824219 9.910156 5.746094 10.003906 5.625 10.058594 C 5.589844 10.183594 5.511719 10.277344 5.390625 10.332031 C 5.355469 10.457031 5.277344 10.550781 5.15625 10.605469 C 5.144531 10.644531 5.128906 10.683594 5.117188 10.722656 C 4.96875 10.882812 4.816406 11.046875 4.667969 11.210938 C 4.476562 11.257812 4.308594 11.21875 4.160156 11.09375 C 3.703125 10.726562 3.234375 10.375 2.753906 10.039062 C 2.683594 9.929688 2.597656 9.832031 2.5 9.746094 C 2.472656 9.378906 2.632812 9.25 2.988281 9.355469 C 3.460938 9.679688 3.914062 10.027344 4.355469 10.390625 C 4.394531 10.417969 4.433594 10.417969 4.472656 10.390625 C 5.261719 9.464844 6.058594 8.546875 6.855469 7.636719 Z M 6.855469 7.636719 "/>
<path style=" stroke:none;fill-rule:evenodd;fill:rgb(99.607843%,99.607843%,99.607843%);fill-opacity:1;" d="M 9.394531 9.472656 C 11.6875 9.464844 13.976562 9.472656 16.269531 9.492188 C 16.453125 9.59375 16.507812 9.742188 16.425781 9.941406 C 16.359375 9.980469 16.308594 10.03125 16.269531 10.097656 C 13.976562 10.144531 11.6875 10.148438 9.394531 10.117188 C 9.191406 9.898438 9.191406 9.683594 9.394531 9.472656 Z M 9.394531 9.472656 "/>
<path style=" stroke:none;fill-rule:evenodd;fill:rgb(83.921569%,35.294118%,28.627451%);fill-opacity:1;" d="M 19.042969 11.425781 C 19.070312 11.425781 19.082031 11.4375 19.082031 11.464844 C 19.054688 11.460938 19.027344 11.464844 19.003906 11.484375 C 18.421875 12.070312 17.835938 12.652344 17.246094 13.222656 C 17.234375 13.222656 17.21875 13.222656 17.207031 13.222656 C 16.894531 12.9375 16.59375 12.636719 16.308594 12.324219 C 16.308594 12.3125 16.308594 12.296875 16.308594 12.285156 C 16.773438 11.882812 17.21875 11.453125 17.636719 10.996094 C 17.65625 10.957031 17.679688 10.925781 17.714844 10.898438 C 18.015625 10.753906 18.304688 10.777344 18.574219 10.976562 C 18.726562 11.132812 18.882812 11.285156 19.042969 11.425781 Z M 19.042969 11.425781 "/>
<use xlink:href="#surface5" mask="url(#mask0)"/>
<path style=" stroke:none;fill-rule:evenodd;fill:rgb(67.45098%,43.529412%,25.490196%);fill-opacity:1;" d="M 17.636719 10.996094 C 17.21875 11.453125 16.773438 11.882812 16.308594 12.285156 C 16.726562 11.828125 17.171875 11.398438 17.636719 10.996094 Z M 17.636719 10.996094 "/>
<path style=" stroke:none;fill-rule:evenodd;fill:rgb(94.117647%,61.176471%,12.941176%);fill-opacity:1;" d="M 16.308594 12.324219 C 16.59375 12.636719 16.894531 12.9375 17.207031 13.222656 C 17.210938 13.25 17.207031 13.277344 17.1875 13.300781 C 15.792969 14.6875 14.40625 16.082031 13.027344 17.480469 C 13.015625 17.480469 13 17.480469 12.988281 17.480469 C 12.703125 17.167969 12.402344 16.867188 12.089844 16.582031 C 12.085938 16.539062 12.089844 16.5 12.109375 16.464844 C 12.515625 16.066406 12.910156 15.664062 13.300781 15.253906 C 13.546875 15.03125 13.78125 14.796875 14.003906 14.550781 C 14.75 13.824219 15.492188 13.085938 16.230469 12.34375 C 16.253906 12.324219 16.28125 12.320312 16.308594 12.324219 Z M 16.308594 12.324219 "/>
<path style=" stroke:none;fill-rule:evenodd;fill:rgb(96.862745%,98.431373%,96.078431%);fill-opacity:1;" d="M 6.816406 13.105469 C 7.230469 13.054688 7.378906 13.222656 7.265625 13.613281 C 6.417969 14.628906 5.566406 15.636719 4.707031 16.640625 C 4.5625 16.714844 4.417969 16.714844 4.277344 16.640625 C 3.695312 16.195312 3.113281 15.746094 2.539062 15.292969 C 2.425781 14.921875 2.5625 14.75 2.949219 14.765625 C 3.402344 15.074219 3.84375 15.402344 4.277344 15.742188 C 4.339844 15.792969 4.402344 15.820312 4.472656 15.820312 C 5.246094 14.910156 6.027344 14.003906 6.816406 13.105469 Z M 6.816406 13.105469 "/>
<path style=" stroke:none;fill-rule:evenodd;fill:rgb(87.843137%,54.901961%,14.509804%);fill-opacity:1;" d="M 17.207031 13.222656 C 17.21875 13.222656 17.234375 13.222656 17.246094 13.222656 C 17.570312 13.609375 17.921875 13.976562 18.300781 14.316406 C 16.921875 15.761719 15.515625 17.179688 14.082031 18.574219 C 13.730469 18.210938 13.378906 17.84375 13.027344 17.480469 C 14.40625 16.082031 15.792969 14.6875 17.1875 13.300781 C 17.207031 13.277344 17.210938 13.25 17.207031 13.222656 Z M 17.207031 13.222656 "/>
<path style=" stroke:none;fill-rule:evenodd;fill:rgb(18.431373%,62.352941%,5.098039%);fill-opacity:1;" d="M 19.042969 13.652344 C 19.058594 14.589844 19.039062 15.527344 18.984375 16.464844 C 18.664062 17.789062 17.835938 18.589844 16.503906 18.867188 C 15.320312 18.921875 14.136719 18.941406 12.949219 18.925781 C 12.953125 18.882812 12.980469 18.855469 13.027344 18.847656 C 13.378906 18.75 13.730469 18.65625 14.082031 18.574219 C 15.515625 17.179688 16.921875 15.761719 18.300781 14.316406 C 18.558594 14.109375 18.804688 13.890625 19.042969 13.652344 Z M 19.042969 13.652344 "/>
<path style=" stroke:none;fill-rule:evenodd;fill:rgb(98.431373%,99.215686%,98.039216%);fill-opacity:1;" d="M 14.003906 14.550781 C 13.78125 14.796875 13.546875 15.03125 13.300781 15.253906 C 12.023438 15.261719 10.75 15.253906 9.472656 15.234375 C 9.21875 15.058594 9.179688 14.851562 9.355469 14.609375 C 10.902344 14.550781 12.449219 14.53125 14.003906 14.550781 Z M 14.003906 14.550781 "/>
<path style=" stroke:none;fill-rule:evenodd;fill:rgb(92.54902%,85.882353%,77.647059%);fill-opacity:1;" d="M 12.089844 16.582031 C 12.402344 16.867188 12.703125 17.167969 12.988281 17.480469 C 12.664062 17.820312 12.335938 18.15625 12.011719 18.496094 C 11.839844 18.429688 11.683594 18.457031 11.542969 18.574219 C 11.707031 17.902344 11.890625 17.238281 12.089844 16.582031 Z M 12.089844 16.582031 "/>
<use xlink:href="#surface8" mask="url(#mask1)"/>
<use xlink:href="#surface11" mask="url(#mask2)"/>
</g>
</svg>
