<?xml version="1.0" encoding="UTF-8"?>
<!DOCTYPE svg PUBLIC "-//W3C//DTD SVG 1.1//EN" "http://www.w3.org/Graphics/SVG/1.1/DTD/svg11.dtd">
<svg xmlns="http://www.w3.org/2000/svg" version="1.1" width="512px" height="512px" style="shape-rendering:geometricPrecision; text-rendering:geometricPrecision; image-rendering:optimizeQuality; fill-rule:evenodd; clip-rule:evenodd" xmlns:xlink="http://www.w3.org/1999/xlink">
<g><path style="opacity:1" fill="#2e9f0d" d="M 68.5,-0.5 C 186.167,-0.5 303.833,-0.5 421.5,-0.5C 455.518,7.0158 477.018,27.6825 486,61.5C 487.479,138.473 487.979,215.473 487.5,292.5C 483.369,288.87 479.369,285.037 475.5,281C 468.577,275.935 461.243,275.268 453.5,279C 452.619,279.708 451.953,280.542 451.5,281.5C 439.552,291.78 428.219,302.78 417.5,314.5C 417.5,314.833 417.5,315.167 417.5,315.5C 416.761,315.369 416.094,315.536 415.5,316C 396.632,335.035 377.632,353.868 358.5,372.5C 318.748,372.012 279.081,372.512 239.5,374C 235.008,380.193 236.008,385.526 242.5,390C 275.165,390.5 307.832,390.667 340.5,390.5C 330.535,400.965 320.369,411.298 310,421.5C 309.517,422.448 309.351,423.448 309.5,424.5C 304.373,441.339 299.706,458.339 295.5,475.5C 293.145,479.855 289.812,483.188 285.5,485.5C 212.647,484.971 139.647,484.138 66.5,483C 30.2211,474.721 9.05446,452.221 3,415.5C 2.33333,299.5 2.33333,183.5 3,67.5C 7.97951,35.8499 25.4795,14.3499 55.5,3C 59.9989,1.96098 64.3323,0.794316 68.5,-0.5 Z"/></g>
<g><path style="opacity:1" fill="#f7fbf6" d="M 174.5,65.5 C 185.139,64.2884 188.972,68.6217 186,78.5C 164.341,104.459 142.507,130.293 120.5,156C 116.302,158.161 112.302,157.828 108.5,155C 93.7294,144.196 79.2294,133.03 65,121.5C 62.1161,112.05 65.6161,107.55 75.5,108C 87.1144,115.947 98.4477,124.281 109.5,133C 111.055,134.289 112.721,134.956 114.5,135C 134.336,111.666 154.336,88.4996 174.5,65.5 Z"/></g>
<g><path style="opacity:1" fill="#fefefd" d="M 241.5,111.5 C 298.168,111.333 354.834,111.5 411.5,112C 419.809,112.471 422.809,116.638 420.5,124.5C 418.723,125.901 417.056,127.401 415.5,129C 357.5,129.667 299.5,129.667 241.5,129C 237.916,127.336 236.249,124.503 236.5,120.5C 236.377,116.405 238.044,113.405 241.5,111.5 Z"/></g>
<g><path style="opacity:1" fill="#f8fcf7" d="M 175.5,195.5 C 186.649,195.148 190.149,200.148 186,210.5C 184.185,212.405 182.185,214.072 180,215.5C 179.092,218.743 177.092,221.077 174,222.5C 173.092,225.743 171.092,228.077 168,229.5C 167.092,232.743 165.092,235.077 162,236.5C 161.092,239.743 159.092,242.077 156,243.5C 155.092,246.743 153.092,249.077 150,250.5C 149.092,253.743 147.092,256.077 144,257.5C 143.092,260.743 141.092,263.077 138,264.5C 137.092,267.743 135.092,270.077 132,271.5C 131.667,272.5 131.333,273.5 131,274.5C 127.167,278.645 123.334,282.812 119.5,287C 114.632,288.186 110.298,287.186 106.5,284C 94.7829,274.615 82.7829,265.615 70.5,257C 68.6776,254.179 66.5109,251.679 64,249.5C 63.2503,240.118 67.417,236.785 76.5,239.5C 88.5827,247.831 100.249,256.664 111.5,266C 112.5,266.667 113.5,266.667 114.5,266C 134.727,242.282 155.061,218.782 175.5,195.5 Z"/></g>
<g><path style="opacity:1" fill="#fefefe" d="M 240.5,242.5 C 299.168,242.333 357.834,242.5 416.5,243C 421.235,245.589 422.568,249.423 420.5,254.5C 418.833,255.5 417.5,256.833 416.5,258.5C 357.836,259.667 299.17,259.833 240.5,259C 235.284,253.396 235.284,247.896 240.5,242.5 Z"/></g>
<g><path style="opacity:1" fill="#d65a49" d="M 487.5,292.5 C 488.167,292.5 488.5,292.833 488.5,293.5C 487.761,293.369 487.094,293.536 486.5,294C 471.632,309.035 456.632,323.869 441.5,338.5C 441.167,338.5 440.833,338.5 440.5,338.5C 432.5,331.167 424.833,323.5 417.5,315.5C 417.5,315.167 417.5,314.833 417.5,314.5C 429.448,304.22 440.781,293.22 451.5,281.5C 451.953,280.542 452.619,279.708 453.5,279C 461.243,275.268 468.577,275.935 475.5,281C 479.369,285.037 483.369,288.87 487.5,292.5 Z"/></g>
<g><path style="opacity:0.985" fill="#a24840" d="M 488.5,293.5 C 494.131,298.63 499.631,303.964 505,309.5C 509.184,316.672 509.518,324.005 506,331.5C 499.965,337.703 493.798,343.703 487.5,349.5C 481.445,355.56 475.111,361.226 468.5,366.5C 458.778,357.78 449.778,348.447 441.5,338.5C 456.632,323.869 471.632,309.035 486.5,294C 487.094,293.536 487.761,293.369 488.5,293.5 Z"/></g>
<g><path style="opacity:1" fill="#ac6f41" d="M 451.5,281.5 C 440.781,293.22 429.448,304.22 417.5,314.5C 428.219,302.78 439.552,291.78 451.5,281.5 Z"/></g>
<g><path style="opacity:1" fill="#f09c21" d="M 417.5,315.5 C 424.833,323.5 432.5,331.167 440.5,338.5C 440.631,339.239 440.464,339.906 440,340.5C 404.299,376.035 368.799,411.701 333.5,447.5C 333.167,447.5 332.833,447.5 332.5,447.5C 325.167,439.5 317.5,431.833 309.5,424.5C 309.351,423.448 309.517,422.448 310,421.5C 320.369,411.298 330.535,400.965 340.5,390.5C 346.833,384.833 352.833,378.833 358.5,372.5C 377.632,353.868 396.632,335.035 415.5,316C 416.094,315.536 416.761,315.369 417.5,315.5 Z"/></g>
<g><path style="opacity:1" fill="#f7fbf5" d="M 174.5,335.5 C 185.057,334.212 188.89,338.546 186,348.5C 164.341,374.459 142.507,400.293 120.5,426C 116.803,427.899 113.136,427.899 109.5,426C 94.5763,414.621 79.7429,403.121 65,391.5C 62.1161,382.05 65.6161,377.55 75.5,378C 87.1144,385.947 98.4477,394.281 109.5,403C 111.055,404.289 112.721,404.956 114.5,405C 134.336,381.666 154.336,358.5 174.5,335.5 Z"/></g>
<g><path style="opacity:1" fill="#e08c25" d="M 440.5,338.5 C 440.833,338.5 441.167,338.5 441.5,338.5C 449.778,348.447 458.778,357.78 468.5,366.5C 433.216,403.451 397.216,439.784 360.5,475.5C 351.5,466.167 342.5,456.833 333.5,447.5C 368.799,411.701 404.299,376.035 440,340.5C 440.464,339.906 440.631,339.239 440.5,338.5 Z"/></g>
<g><path style="opacity:1" fill="#2f9f0d" d="M 487.5,349.5 C 487.939,373.538 487.439,397.538 486,421.5C 477.783,455.36 456.616,475.86 422.5,483C 392.196,484.435 361.863,484.935 331.5,484.5C 331.62,483.414 332.287,482.747 333.5,482.5C 342.462,479.956 351.462,477.623 360.5,475.5C 397.216,439.784 433.216,403.451 468.5,366.5C 475.111,361.226 481.445,355.56 487.5,349.5 Z"/></g>
<g><path style="opacity:1" fill="#fbfdfa" d="M 358.5,372.5 C 352.833,378.833 346.833,384.833 340.5,390.5C 307.832,390.667 275.165,390.5 242.5,390C 236.008,385.526 235.008,380.193 239.5,374C 279.081,372.512 318.748,372.012 358.5,372.5 Z"/></g>
<g><path style="opacity:1" fill="#ecdbc6" d="M 309.5,424.5 C 317.5,431.833 325.167,439.5 332.5,447.5C 324.167,456.167 315.833,464.833 307.5,473.5C 303.101,471.843 299.101,472.509 295.5,475.5C 299.706,458.339 304.373,441.339 309.5,424.5 Z"/></g>
<g><path style="opacity:0.989" fill="#d4c3b0" d="M 332.5,447.5 C 332.833,447.5 333.167,447.5 333.5,447.5C 342.5,456.833 351.5,466.167 360.5,475.5C 351.462,477.623 342.462,479.956 333.5,482.5C 332.287,482.747 331.62,483.414 331.5,484.5C 323.577,486.814 315.577,488.814 307.5,490.5C 312.775,484.716 312.775,479.05 307.5,473.5C 315.833,464.833 324.167,456.167 332.5,447.5 Z"/></g>
<g><path style="opacity:0.967" fill="#5e5e5e" d="M 307.5,473.5 C 312.775,479.05 312.775,484.716 307.5,490.5C 300.806,497.86 293.806,504.86 286.5,511.5C 283.5,511.5 280.5,511.5 277.5,511.5C 273.198,508.212 271.698,503.879 273,498.5C 276.67,493.664 280.836,489.331 285.5,485.5C 289.812,483.188 293.145,479.855 295.5,475.5C 299.101,472.509 303.101,471.843 307.5,473.5 Z"/></g>
</svg>
